<svg width="1082" height="201" viewBox="0 0 1082 201" fill="none" xmlns="http://www.w3.org/2000/svg">
<path d="M20.416 17.512H17.344C16.544 14.856 14.272 13.384 11.488 13.384C7.232 13.384 4.704 16.712 4.704 22.152C4.704 27.592 7.2 30.856 11.488 30.856C14.176 30.856 16.352 29.48 17.28 26.856H20.384C19.168 30.984 15.616 33.384 11.456 33.384C5.376 33.384 1.696 29.128 1.696 22.152C1.696 15.208 5.44 10.856 11.584 10.856C15.776 10.856 19.36 13.16 20.416 17.512ZM30.9333 33.384C26.0693 33.384 23.1573 30.056 23.1573 24.52C23.1573 18.76 26.1653 15.592 30.9333 15.592C35.7973 15.592 38.7093 18.984 38.7093 24.52C38.7093 30.248 35.7013 33.384 30.9333 33.384ZM30.9333 30.952C34.1013 30.952 35.8293 28.68 35.8293 24.52C35.8293 20.392 34.0693 18.024 30.9333 18.024C27.7653 18.024 26.0373 20.328 26.0373 24.52C26.0373 28.616 27.7973 30.952 30.9333 30.952ZM42.3338 33V16.008H45.1498V18.632C46.3018 16.552 48.1258 15.592 50.1738 15.592C50.8458 15.592 51.4538 15.752 51.7738 16.008V18.536C51.2938 18.376 50.6858 18.312 50.0138 18.312C46.6218 18.312 45.1498 20.424 45.1498 23.496V33H42.3338ZM54.2713 13.736V9.96H57.0873V13.736H54.2713ZM54.2713 33V16.008H57.0873V33H54.2713ZM61.5525 33V16.008H64.3685V18.184C65.4565 16.456 67.1525 15.592 69.2325 15.592C71.5685 15.592 73.2645 16.616 74.0645 18.6C75.1845 16.616 77.0405 15.592 79.3125 15.592C82.7685 15.592 84.8485 17.704 84.8485 21.64V33H82.0325V22.216C82.0325 19.656 81.0085 17.992 78.7045 17.992C76.1445 17.992 74.6085 20.52 74.6085 22.952V33H71.7925V22.216C71.7925 19.656 70.7685 17.992 68.4645 17.992C65.9045 17.992 64.3685 20.52 64.3685 22.952V33H61.5525ZM91.9258 21.544H89.1098C89.6538 17.8 92.1178 15.592 96.2778 15.592C100.822 15.592 103.03 18.248 103.03 22.216V28.904C103.03 30.856 103.19 32.072 103.638 33H100.662C100.342 32.328 100.246 31.336 100.214 30.312C98.7738 32.456 96.4698 33.384 94.4218 33.384C90.9018 33.384 88.5338 31.752 88.5338 28.52C88.5338 26.184 89.8138 24.488 92.3098 23.656C94.6138 22.888 96.9498 22.696 100.214 22.664V22.28C100.214 19.528 98.9338 18.024 96.0218 18.024C93.5898 18.024 92.2778 19.368 91.9258 21.544ZM91.4138 28.456C91.4138 30.024 92.7258 30.952 94.7098 30.952C97.8458 30.952 100.214 28.488 100.214 25.576V24.776C92.9818 24.84 91.4138 26.376 91.4138 28.456ZM118.597 38.792C115.461 33.896 113.829 29.128 113.829 24.36C113.829 19.592 115.461 14.856 118.597 9.96H121.381C118.373 14.984 116.837 19.656 116.837 24.36C116.837 29.096 118.373 33.768 121.381 38.792H118.597ZM124.303 33V9.96H127.119V23.304L134.447 16.008H137.903L130.159 23.592L138.351 33H134.767L127.119 24.328V33H124.303ZM146.558 33.384C141.694 33.384 138.782 30.056 138.782 24.52C138.782 18.76 141.79 15.592 146.558 15.592C151.422 15.592 154.334 18.984 154.334 24.52C154.334 30.248 151.326 33.384 146.558 33.384ZM146.558 30.952C149.726 30.952 151.454 28.68 151.454 24.52C151.454 20.392 149.694 18.024 146.558 18.024C143.39 18.024 141.662 20.328 141.662 24.52C141.662 28.616 143.422 30.952 146.558 30.952ZM157.895 25.48V23.08H166.407V25.48H157.895ZM170.865 33V16.008H173.681V18.632C174.833 16.552 176.657 15.592 178.705 15.592C179.377 15.592 179.985 15.752 180.305 16.008V18.536C179.825 18.376 179.217 18.312 178.545 18.312C175.153 18.312 173.681 20.424 173.681 23.496V33H170.865ZM197.178 27.464C196.25 31.432 193.402 33.384 189.53 33.384C184.602 33.384 181.626 30.056 181.626 24.52C181.626 18.76 184.602 15.592 189.37 15.592C194.17 15.592 197.05 18.888 197.05 24.296V25H184.506C184.666 28.808 186.458 30.952 189.53 30.952C191.93 30.952 193.626 29.8 194.234 27.464H197.178ZM189.37 18.024C186.65 18.024 185.018 19.72 184.602 22.888H194.106C193.722 19.752 192.026 18.024 189.37 18.024ZM215.491 27.464C214.562 31.432 211.715 33.384 207.843 33.384C202.915 33.384 199.939 30.056 199.939 24.52C199.939 18.76 202.915 15.592 207.683 15.592C212.483 15.592 215.363 18.888 215.363 24.296V25H202.819C202.979 28.808 204.771 30.952 207.843 30.952C210.243 30.952 211.939 29.8 212.547 27.464H215.491ZM207.683 18.024C204.963 18.024 203.331 19.72 202.915 22.888H212.419C212.035 19.752 210.339 18.024 207.683 18.024ZM219.051 25.48V23.08H227.563V25.48H219.051ZM232.021 33V16.008H234.837V18.184C235.925 16.456 237.621 15.592 239.701 15.592C242.037 15.592 243.733 16.616 244.533 18.6C245.653 16.616 247.509 15.592 249.781 15.592C253.237 15.592 255.317 17.704 255.317 21.64V33H252.501V22.216C252.501 19.656 251.477 17.992 249.173 17.992C246.613 17.992 245.077 20.52 245.077 22.952V33H242.261V22.216C242.261 19.656 241.237 17.992 238.933 17.992C236.373 17.992 234.837 20.52 234.837 22.952V33H232.021ZM262.395 21.544H259.579C260.123 17.8 262.587 15.592 266.747 15.592C271.291 15.592 273.499 18.248 273.499 22.216V28.904C273.499 30.856 273.659 32.072 274.107 33H271.131C270.811 32.328 270.715 31.336 270.683 30.312C269.243 32.456 266.939 33.384 264.891 33.384C261.371 33.384 259.003 31.752 259.003 28.52C259.003 26.184 260.283 24.488 262.779 23.656C265.083 22.888 267.419 22.696 270.683 22.664V22.28C270.683 19.528 269.403 18.024 266.491 18.024C264.059 18.024 262.747 19.368 262.395 21.544ZM261.883 28.456C261.883 30.024 263.195 30.952 265.179 30.952C268.315 30.952 270.683 28.488 270.683 25.576V24.776C263.451 24.84 261.883 26.376 261.883 28.456ZM279.331 38.792H276.547C279.555 33.768 281.091 29.096 281.091 24.36C281.091 19.656 279.555 14.984 276.547 9.96H279.331C282.467 14.856 284.099 19.592 284.099 24.36C284.099 29.128 282.467 33.896 279.331 38.792ZM294.771 13.736V9.96H297.587V13.736H294.771ZM294.771 33V16.008H297.587V33H294.771ZM304.133 20.36C304.133 25.096 315.173 21.192 315.173 28.2C315.173 31.368 312.357 33.384 308.357 33.384C304.325 33.384 301.509 31.464 300.868 27.464H303.685C304.069 29.832 305.829 31.144 308.453 31.144C311.013 31.144 312.357 29.992 312.357 28.392C312.357 23.752 301.445 27.592 301.445 20.552C301.445 17.96 303.461 15.592 307.621 15.592C311.301 15.592 314.021 17.32 314.565 21.544H311.749C311.333 18.888 309.861 17.896 307.461 17.896C305.349 17.896 304.133 18.952 304.133 20.36ZM327.52 21.544H324.704C325.248 17.8 327.712 15.592 331.872 15.592C336.416 15.592 338.624 18.248 338.624 22.216V28.904C338.624 30.856 338.784 32.072 339.232 33H336.256C335.936 32.328 335.84 31.336 335.808 30.312C334.368 32.456 332.064 33.384 330.016 33.384C326.496 33.384 324.128 31.752 324.128 28.52C324.128 26.184 325.408 24.488 327.904 23.656C330.208 22.888 332.544 22.696 335.808 22.664V22.28C335.808 19.528 334.528 18.024 331.616 18.024C329.184 18.024 327.872 19.368 327.52 21.544ZM327.008 28.456C327.008 30.024 328.32 30.952 330.304 30.952C333.44 30.952 335.808 28.488 335.808 25.576V24.776C328.576 24.84 327.008 26.376 327.008 28.456ZM363.694 21.864H360.878C360.43 19.272 358.702 18.024 356.462 18.024C353.326 18.024 351.662 20.328 351.662 24.52C351.662 28.648 353.422 30.984 356.558 30.984C358.83 30.984 360.462 29.768 361.006 27.336H363.822C363.054 31.56 360.206 33.384 356.494 33.384C351.662 33.384 348.782 30.024 348.782 24.52C348.782 18.76 351.726 15.592 356.462 15.592C360.206 15.592 363.15 17.704 363.694 21.864ZM374.215 33.384C369.351 33.384 366.439 30.056 366.439 24.52C366.439 18.76 369.447 15.592 374.215 15.592C379.079 15.592 381.991 18.984 381.991 24.52C381.991 30.248 378.983 33.384 374.215 33.384ZM374.215 30.952C377.383 30.952 379.111 28.68 379.111 24.52C379.111 20.392 377.351 18.024 374.215 18.024C371.047 18.024 369.319 20.328 369.319 24.52C369.319 28.616 371.079 30.952 374.215 30.952ZM385.615 33V16.008H388.431V18.632C389.583 16.552 391.407 15.592 393.455 15.592C394.127 15.592 394.735 15.752 395.055 16.008V18.536C394.575 18.376 393.967 18.312 393.295 18.312C389.903 18.312 388.431 20.424 388.431 23.496V33H385.615ZM397.553 33V16.008H400.369V18.312C401.521 16.52 403.377 15.592 405.617 15.592C409.233 15.592 411.377 17.704 411.377 21.64V33H408.561V22.216C408.561 19.656 407.409 17.992 404.849 17.992C402.033 17.992 400.369 20.52 400.369 22.952V33H397.553ZM430.553 27.464C429.625 31.432 426.777 33.384 422.905 33.384C417.977 33.384 415.001 30.056 415.001 24.52C415.001 18.76 417.977 15.592 422.745 15.592C427.545 15.592 430.425 18.888 430.425 24.296V25H417.881C418.041 28.808 419.833 30.952 422.905 30.952C425.305 30.952 427.001 29.8 427.609 27.464H430.553ZM422.745 18.024C420.025 18.024 418.393 19.72 417.977 22.888H427.481C427.097 19.752 425.401 18.024 422.745 18.024ZM434.178 33V16.008H436.994V18.632C438.146 16.552 439.97 15.592 442.018 15.592C442.69 15.592 443.298 15.752 443.618 16.008V18.536C443.138 18.376 442.53 18.312 441.858 18.312C438.466 18.312 436.994 20.424 436.994 23.496V33H434.178ZM448.195 20.36C448.195 25.096 459.235 21.192 459.235 28.2C459.235 31.368 456.419 33.384 452.419 33.384C448.387 33.384 445.571 31.464 444.931 27.464H447.747C448.131 29.832 449.891 31.144 452.515 31.144C455.075 31.144 456.419 29.992 456.419 28.392C456.419 23.752 445.507 27.592 445.507 20.552C445.507 17.96 447.523 15.592 451.683 15.592C455.363 15.592 458.083 17.32 458.627 21.544H455.811C455.395 18.888 453.923 17.896 451.523 17.896C449.411 17.896 448.195 18.952 448.195 20.36ZM462.968 28.104V18.248H460.6V16.008H462.968V12.104H465.784V16.008H469.528V18.248H465.784V28.104C465.784 30.152 466.392 31.112 468.888 31.112H469.464V33.128C469.144 33.288 468.44 33.384 467.64 33.384C464.472 33.384 462.968 31.688 462.968 28.104ZM479.121 33.384C474.257 33.384 471.345 30.056 471.345 24.52C471.345 18.76 474.353 15.592 479.121 15.592C483.985 15.592 486.897 18.984 486.897 24.52C486.897 30.248 483.889 33.384 479.121 33.384ZM479.121 30.952C482.289 30.952 484.017 28.68 484.017 24.52C484.017 20.392 482.257 18.024 479.121 18.024C475.953 18.024 474.225 20.328 474.225 24.52C474.225 28.616 475.985 30.952 479.121 30.952ZM490.521 33V16.008H493.337V18.312C494.489 16.52 496.345 15.592 498.585 15.592C502.201 15.592 504.345 17.704 504.345 21.64V33H501.529V22.216C501.529 19.656 500.377 17.992 497.817 17.992C495.001 17.992 493.337 20.52 493.337 22.952V33H490.521ZM523.522 27.464C522.594 31.432 519.746 33.384 515.874 33.384C510.946 33.384 507.97 30.056 507.97 24.52C507.97 18.76 510.946 15.592 515.714 15.592C520.514 15.592 523.394 18.888 523.394 24.296V25H510.85C511.01 28.808 512.802 30.952 515.874 30.952C518.274 30.952 519.97 29.8 520.578 27.464H523.522ZM515.714 18.024C512.994 18.024 511.362 19.72 510.946 22.888H520.45C520.066 19.752 518.37 18.024 515.714 18.024ZM536.401 40.04H533.585V16.008H536.401V18.12C537.521 16.52 539.153 15.592 541.169 15.592C545.681 15.592 548.401 18.92 548.401 24.456C548.401 30.216 545.617 33.384 541.169 33.384C539.153 33.384 537.521 32.552 536.401 30.984V40.04ZM540.977 18.024C538.001 18.024 536.401 20.296 536.401 24.456C536.401 28.584 538.065 30.952 540.977 30.952C543.921 30.952 545.521 28.648 545.521 24.456C545.521 20.36 543.857 18.024 540.977 18.024ZM552.021 33V16.008H554.837V18.632C555.989 16.552 557.813 15.592 559.861 15.592C560.533 15.592 561.141 15.752 561.461 16.008V18.536C560.981 18.376 560.373 18.312 559.701 18.312C556.309 18.312 554.837 20.424 554.837 23.496V33H552.021ZM563.959 13.736V9.96H566.775V13.736H563.959ZM563.959 33V16.008H566.775V33H563.959ZM571.24 33V16.008H574.056V18.312C575.208 16.52 577.064 15.592 579.304 15.592C582.92 15.592 585.064 17.704 585.064 21.64V33H582.248V22.216C582.248 19.656 581.096 17.992 578.536 17.992C575.72 17.992 574.056 20.52 574.056 22.952V33H571.24ZM603.601 21.864H600.785C600.337 19.272 598.609 18.024 596.369 18.024C593.233 18.024 591.569 20.328 591.569 24.52C591.569 28.648 593.329 30.984 596.465 30.984C598.737 30.984 600.369 29.768 600.913 27.336H603.729C602.961 31.56 600.113 33.384 596.401 33.384C591.569 33.384 588.689 30.024 588.689 24.52C588.689 18.76 591.633 15.592 596.369 15.592C600.113 15.592 603.057 17.704 603.601 21.864ZM607.209 13.736V9.96H610.025V13.736H607.209ZM607.209 33V16.008H610.025V33H607.209ZM617.338 40.04H614.522V16.008H617.338V18.12C618.458 16.52 620.09 15.592 622.106 15.592C626.618 15.592 629.338 18.92 629.338 24.456C629.338 30.216 626.554 33.384 622.106 33.384C620.09 33.384 618.458 32.552 617.338 30.984V40.04ZM621.914 18.024C618.938 18.024 617.338 20.296 617.338 24.456C617.338 28.584 619.002 30.952 621.914 30.952C624.858 30.952 626.458 28.648 626.458 24.456C626.458 20.36 624.794 18.024 621.914 18.024ZM632.959 33V9.96H635.775V33H632.959ZM654.928 27.464C654 31.432 651.152 33.384 647.28 33.384C642.352 33.384 639.376 30.056 639.376 24.52C639.376 18.76 642.352 15.592 647.12 15.592C651.92 15.592 654.8 18.888 654.8 24.296V25H642.256C642.416 28.808 644.208 30.952 647.28 30.952C649.68 30.952 651.376 29.8 651.984 27.464H654.928ZM647.12 18.024C644.4 18.024 642.768 19.72 642.352 22.888H651.856C651.472 19.752 649.776 18.024 647.12 18.024ZM671.871 33.384C667.007 33.384 664.095 30.056 664.095 24.52C664.095 18.76 667.103 15.592 671.871 15.592C676.735 15.592 679.647 18.984 679.647 24.52C679.647 30.248 676.639 33.384 671.871 33.384ZM671.871 30.952C675.039 30.952 676.767 28.68 676.767 24.52C676.767 20.392 675.007 18.024 671.871 18.024C668.703 18.024 666.975 20.328 666.975 24.52C666.975 28.616 668.735 30.952 671.871 30.952ZM681.191 18.248V16.008H683.559V14.856C683.559 11.272 685.031 9.576 688.167 9.576C688.871 9.576 689.447 9.704 689.735 9.832V11.848H689.447C686.983 11.848 686.375 12.808 686.375 14.856V16.008H689.735V18.248H686.375V33H683.559V18.248H681.191ZM8.448 75V55.736H0.992V53.24H18.848V55.736H11.392V75H8.448ZM21.6445 63.544H18.8285C19.3725 59.8 21.8365 57.592 25.9965 57.592C30.5405 57.592 32.7485 60.248 32.7485 64.216V70.904C32.7485 72.856 32.9085 74.072 33.3565 75H30.3805C30.0605 74.328 29.9645 73.336 29.9325 72.312C28.4925 74.456 26.1885 75.384 24.1405 75.384C20.6205 75.384 18.2525 73.752 18.2525 70.52C18.2525 68.184 19.5325 66.488 22.0285 65.656C24.3325 64.888 26.6685 64.696 29.9325 64.664V64.28C29.9325 61.528 28.6525 60.024 25.7405 60.024C23.3085 60.024 21.9965 61.368 21.6445 63.544ZM21.1325 70.456C21.1325 72.024 22.4445 72.952 24.4285 72.952C27.5645 72.952 29.9325 70.488 29.9325 67.576V66.776C22.7005 66.84 21.1325 68.376 21.1325 70.456ZM37.365 75V58.008H40.181V60.632C41.333 58.552 43.157 57.592 45.205 57.592C45.877 57.592 46.485 57.752 46.805 58.008V60.536C46.325 60.376 45.717 60.312 45.045 60.312C41.653 60.312 40.181 62.424 40.181 65.496V75H37.365ZM51.582 63.544H48.766C49.31 59.8 51.774 57.592 55.934 57.592C60.478 57.592 62.686 60.248 62.686 64.216V70.904C62.686 72.856 62.846 74.072 63.294 75H60.318C59.998 74.328 59.902 73.336 59.87 72.312C58.43 74.456 56.126 75.384 54.078 75.384C50.558 75.384 48.19 73.752 48.19 70.52C48.19 68.184 49.47 66.488 51.966 65.656C54.27 64.888 56.606 64.696 59.87 64.664V64.28C59.87 61.528 58.59 60.024 55.678 60.024C53.246 60.024 51.934 61.368 51.582 63.544ZM51.07 70.456C51.07 72.024 52.382 72.952 54.366 72.952C57.502 72.952 59.87 70.488 59.87 67.576V66.776C52.638 66.84 51.07 68.376 51.07 70.456ZM67.3025 75V51.96H70.1185V60.312C71.2705 58.52 73.1265 57.592 75.3665 57.592C78.9825 57.592 81.1265 59.704 81.1265 63.64V75H78.3105V64.216C78.3105 61.656 77.1585 59.992 74.5985 59.992C71.7825 59.992 70.1185 62.52 70.1185 64.952V75H67.3025ZM96.431 68.056V58.008H99.247V75H96.431V72.696C95.279 74.488 93.487 75.384 91.279 75.384C87.727 75.384 85.615 73.304 85.615 69.368V58.008H88.431V68.792C88.431 71.352 89.551 72.984 92.047 72.984C94.799 72.984 96.431 70.488 96.431 68.056ZM103.74 75V58.008H106.556V60.184C107.644 58.456 109.34 57.592 111.42 57.592C113.756 57.592 115.452 58.616 116.252 60.6C117.372 58.616 119.228 57.592 121.5 57.592C124.956 57.592 127.036 59.704 127.036 63.64V75H124.22V64.216C124.22 61.656 123.196 59.992 120.892 59.992C118.332 59.992 116.796 62.52 116.796 64.952V75H113.98V64.216C113.98 61.656 112.956 59.992 110.652 59.992C108.092 59.992 106.556 62.52 106.556 64.952V75H103.74ZM134.113 63.544H131.297C131.841 59.8 134.305 57.592 138.465 57.592C143.009 57.592 145.217 60.248 145.217 64.216V70.904C145.217 72.856 145.377 74.072 145.825 75H142.849C142.529 74.328 142.433 73.336 142.401 72.312C140.961 74.456 138.657 75.384 136.609 75.384C133.089 75.384 130.721 73.752 130.721 70.52C130.721 68.184 132.001 66.488 134.497 65.656C136.801 64.888 139.137 64.696 142.401 64.664V64.28C142.401 61.528 141.121 60.024 138.209 60.024C135.777 60.024 134.465 61.368 134.113 63.544ZM133.601 70.456C133.601 72.024 134.913 72.952 136.897 72.952C140.033 72.952 142.401 70.488 142.401 67.576V66.776C135.169 66.84 133.601 68.376 133.601 70.456ZM149.834 75V58.008H152.65V60.632C153.802 58.552 155.626 57.592 157.674 57.592C158.346 57.592 158.954 57.752 159.274 58.008V60.536C158.794 60.376 158.186 60.312 157.514 60.312C154.122 60.312 152.65 62.424 152.65 65.496V75H149.834ZM164.051 63.544H161.235C161.779 59.8 164.243 57.592 168.403 57.592C172.947 57.592 175.155 60.248 175.155 64.216V70.904C175.155 72.856 175.315 74.072 175.763 75H172.787C172.467 74.328 172.371 73.336 172.339 72.312C170.899 74.456 168.595 75.384 166.547 75.384C163.027 75.384 160.659 73.752 160.659 70.52C160.659 68.184 161.939 66.488 164.435 65.656C166.739 64.888 169.075 64.696 172.339 64.664V64.28C172.339 61.528 171.059 60.024 168.147 60.024C165.715 60.024 164.403 61.368 164.051 63.544ZM163.539 70.456C163.539 72.024 164.851 72.952 166.835 72.952C169.971 72.952 172.339 70.488 172.339 67.576V66.776C165.107 66.84 163.539 68.376 163.539 70.456ZM188.258 62.36C188.258 67.096 199.298 63.192 199.298 70.2C199.298 73.368 196.482 75.384 192.482 75.384C188.45 75.384 185.634 73.464 184.993 69.464H187.81C188.194 71.832 189.954 73.144 192.578 73.144C195.138 73.144 196.482 71.992 196.482 70.392C196.482 65.752 185.57 69.592 185.57 62.552C185.57 59.96 187.586 57.592 191.746 57.592C195.426 57.592 198.146 59.32 198.69 63.544H195.874C195.458 60.888 193.986 59.896 191.586 59.896C189.474 59.896 188.258 60.952 188.258 62.36ZM209.558 75.384C204.694 75.384 201.782 72.056 201.782 66.52C201.782 60.76 204.79 57.592 209.558 57.592C214.422 57.592 217.334 60.984 217.334 66.52C217.334 72.248 214.326 75.384 209.558 75.384ZM209.558 72.952C212.726 72.952 214.454 70.68 214.454 66.52C214.454 62.392 212.694 60.024 209.558 60.024C206.39 60.024 204.662 62.328 204.662 66.52C204.662 70.616 206.422 72.952 209.558 72.952ZM235.007 63.864H232.191C231.743 61.272 230.015 60.024 227.775 60.024C224.639 60.024 222.975 62.328 222.975 66.52C222.975 70.648 224.735 72.984 227.871 72.984C230.143 72.984 231.775 71.768 232.319 69.336H235.135C234.367 73.56 231.519 75.384 227.807 75.384C222.975 75.384 220.095 72.024 220.095 66.52C220.095 60.76 223.039 57.592 227.775 57.592C231.519 57.592 234.463 59.704 235.007 63.864ZM238.615 55.736V51.96H241.431V55.736H238.615ZM238.615 75V58.008H241.431V75H238.615ZM260.584 69.464C259.656 73.432 256.808 75.384 252.936 75.384C248.008 75.384 245.032 72.056 245.032 66.52C245.032 60.76 248.008 57.592 252.776 57.592C257.576 57.592 260.456 60.888 260.456 66.296V67H247.912C248.072 70.808 249.864 72.952 252.936 72.952C255.336 72.952 257.032 71.8 257.64 69.464H260.584ZM252.776 60.024C250.056 60.024 248.424 61.72 248.008 64.888H257.512C257.128 61.752 255.432 60.024 252.776 60.024ZM264.593 70.104V60.248H262.225V58.008H264.593V54.104H267.409V58.008H271.153V60.248H267.409V70.104C267.409 72.152 268.017 73.112 270.513 73.112H271.089V75.128C270.769 75.288 270.065 75.384 269.265 75.384C266.097 75.384 264.593 73.688 264.593 70.104ZM274.602 82.424C273.962 82.424 273.29 82.264 272.938 82.168V79.992H273.802C275.882 79.992 276.458 79.576 278.122 75.768L278.698 74.456L271.754 58.008H274.794L279.402 69.24L280.17 71.512L280.938 69.24L285.418 58.008H288.298L280.362 77.24C278.666 81.336 277.546 82.424 274.602 82.424ZM288.139 75V71.544H291.595V75H288.139ZM302.402 75V53.24H305.346V72.6H316.29V75H302.402ZM319.553 55.736V51.96H322.369V55.736H319.553ZM319.553 75V58.008H322.369V75H319.553ZM327.218 70.104V60.248H324.85V58.008H327.218V54.104H330.034V58.008H333.778V60.248H330.034V70.104C330.034 72.152 330.642 73.112 333.138 73.112H333.714V75.128C333.394 75.288 332.69 75.384 331.89 75.384C328.722 75.384 327.218 73.688 327.218 70.104ZM351.147 69.464C350.219 73.432 347.371 75.384 343.499 75.384C338.571 75.384 335.595 72.056 335.595 66.52C335.595 60.76 338.571 57.592 343.339 57.592C348.139 57.592 351.019 60.888 351.019 66.296V67H338.475C338.635 70.808 340.427 72.952 343.499 72.952C345.899 72.952 347.595 71.8 348.203 69.464H351.147ZM343.339 60.024C340.619 60.024 338.987 61.72 338.571 64.888H348.075C347.691 61.752 345.995 60.024 343.339 60.024ZM354.771 75V58.008H357.587V60.632C358.739 58.552 360.563 57.592 362.611 57.592C363.283 57.592 363.891 57.752 364.211 58.008V60.536C363.731 60.376 363.123 60.312 362.451 60.312C359.059 60.312 357.587 62.424 357.587 65.496V75H354.771ZM368.988 63.544H366.172C366.716 59.8 369.18 57.592 373.34 57.592C377.884 57.592 380.092 60.248 380.092 64.216V70.904C380.092 72.856 380.252 74.072 380.7 75H377.724C377.404 74.328 377.308 73.336 377.276 72.312C375.836 74.456 373.532 75.384 371.484 75.384C367.964 75.384 365.596 73.752 365.596 70.52C365.596 68.184 366.876 66.488 369.372 65.656C371.676 64.888 374.012 64.696 377.276 64.664V64.28C377.276 61.528 375.996 60.024 373.084 60.024C370.652 60.024 369.34 61.368 368.988 63.544ZM368.476 70.456C368.476 72.024 369.788 72.952 371.772 72.952C374.908 72.952 377.276 70.488 377.276 67.576V66.776C370.044 66.84 368.476 68.376 368.476 70.456ZM384.709 75V51.96H387.525V75H384.709ZM391.99 75V51.96H394.806V75H391.99ZM400.039 82.424C399.399 82.424 398.727 82.264 398.375 82.168V79.992H399.239C401.319 79.992 401.895 79.576 403.559 75.768L404.135 74.456L397.191 58.008H400.231L404.839 69.24L405.607 71.512L406.375 69.24L410.855 58.008H413.735L405.799 77.24C404.103 81.336 402.983 82.424 400.039 82.424ZM422.937 70.104V60.248H420.569V58.008H422.937V54.104H425.753V58.008H429.497V60.248H425.753V70.104C425.753 72.152 426.361 73.112 428.857 73.112H429.433V75.128C429.113 75.288 428.409 75.384 427.609 75.384C424.441 75.384 422.937 73.688 422.937 70.104ZM432.178 75V58.008H434.994V60.632C436.146 58.552 437.97 57.592 440.018 57.592C440.69 57.592 441.298 57.752 441.618 58.008V60.536C441.138 60.376 440.53 60.312 439.858 60.312C436.466 60.312 434.994 62.424 434.994 65.496V75H432.178ZM446.395 63.544H443.579C444.123 59.8 446.587 57.592 450.747 57.592C455.291 57.592 457.499 60.248 457.499 64.216V70.904C457.499 72.856 457.659 74.072 458.107 75H455.131C454.811 74.328 454.715 73.336 454.683 72.312C453.243 74.456 450.939 75.384 448.891 75.384C445.371 75.384 443.003 73.752 443.003 70.52C443.003 68.184 444.283 66.488 446.779 65.656C449.083 64.888 451.419 64.696 454.683 64.664V64.28C454.683 61.528 453.403 60.024 450.491 60.024C448.059 60.024 446.747 61.368 446.395 63.544ZM445.883 70.456C445.883 72.024 447.195 72.952 449.179 72.952C452.315 72.952 454.683 70.488 454.683 67.576V66.776C447.451 66.84 445.883 68.376 445.883 70.456ZM462.115 75V58.008H464.931V60.312C466.083 58.52 467.939 57.592 470.179 57.592C473.795 57.592 475.939 59.704 475.939 63.64V75H473.123V64.216C473.123 61.656 471.971 59.992 469.411 59.992C466.595 59.992 464.931 62.52 464.931 64.952V75H462.115ZM482.508 62.36C482.508 67.096 493.548 63.192 493.548 70.2C493.548 73.368 490.732 75.384 486.732 75.384C482.7 75.384 479.884 73.464 479.243 69.464H482.06C482.444 71.832 484.204 73.144 486.828 73.144C489.388 73.144 490.732 71.992 490.732 70.392C490.732 65.752 479.82 69.592 479.82 62.552C479.82 59.96 481.836 57.592 485.996 57.592C489.676 57.592 492.396 59.32 492.94 63.544H490.124C489.708 60.888 488.236 59.896 485.836 59.896C483.724 59.896 482.508 60.952 482.508 62.36ZM496.896 75V51.96H499.712V75H496.896ZM506.77 63.544H503.954C504.498 59.8 506.962 57.592 511.122 57.592C515.666 57.592 517.874 60.248 517.874 64.216V70.904C517.874 72.856 518.034 74.072 518.482 75H515.506C515.186 74.328 515.09 73.336 515.058 72.312C513.618 74.456 511.314 75.384 509.266 75.384C505.746 75.384 503.378 73.752 503.378 70.52C503.378 68.184 504.658 66.488 507.154 65.656C509.458 64.888 511.794 64.696 515.058 64.664V64.28C515.058 61.528 513.778 60.024 510.866 60.024C508.434 60.024 507.122 61.368 506.77 63.544ZM506.258 70.456C506.258 72.024 507.57 72.952 509.554 72.952C512.69 72.952 515.058 70.488 515.058 67.576V66.776C507.826 66.84 506.258 68.376 506.258 70.456ZM522.874 70.104V60.248H520.506V58.008H522.874V54.104H525.69V58.008H529.434V60.248H525.69V70.104C525.69 72.152 526.298 73.112 528.794 73.112H529.37V75.128C529.05 75.288 528.346 75.384 527.546 75.384C524.378 75.384 522.874 73.688 522.874 70.104ZM546.803 69.464C545.875 73.432 543.027 75.384 539.155 75.384C534.227 75.384 531.251 72.056 531.251 66.52C531.251 60.76 534.227 57.592 538.995 57.592C543.795 57.592 546.675 60.888 546.675 66.296V67H534.131C534.291 70.808 536.083 72.952 539.155 72.952C541.555 72.952 543.251 71.8 543.859 69.464H546.803ZM538.995 60.024C536.275 60.024 534.643 61.72 534.227 64.888H543.731C543.347 61.752 541.651 60.024 538.995 60.024ZM556.796 75.384C552.284 75.384 549.564 72.056 549.564 66.52C549.564 60.76 552.348 57.592 556.796 57.592C558.812 57.592 560.444 58.424 561.564 59.992V51.96H564.38V75H561.564V72.856C560.444 74.456 558.812 75.384 556.796 75.384ZM556.988 72.952C559.964 72.952 561.564 70.68 561.564 66.52C561.564 62.392 559.9 60.024 556.988 60.024C554.044 60.024 552.444 62.328 552.444 66.52C552.444 70.616 554.108 72.952 556.988 72.952ZM568.545 75V71.544H572.001V73.4C572.001 76.376 571.521 78.2 570.401 80.28H568.801C569.537 78.36 569.953 76.984 569.953 75H568.545ZM582.553 55.736V51.96H585.369V55.736H582.553ZM582.553 75V58.008H585.369V75H582.553ZM590.218 70.104V60.248H587.85V58.008H590.218V54.104H593.034V58.008H596.778V60.248H593.034V70.104C593.034 72.152 593.642 73.112 596.138 73.112H596.714V75.128C596.394 75.288 595.69 75.384 594.89 75.384C591.722 75.384 590.218 73.688 590.218 70.104ZM605.865 75V58.008H608.681V60.184C609.769 58.456 611.465 57.592 613.545 57.592C615.881 57.592 617.577 58.616 618.377 60.6C619.497 58.616 621.353 57.592 623.625 57.592C627.081 57.592 629.161 59.704 629.161 63.64V75H626.345V64.216C626.345 61.656 625.321 59.992 623.017 59.992C620.457 59.992 618.921 62.52 618.921 64.952V75H616.105V64.216C616.105 61.656 615.081 59.992 612.777 59.992C610.217 59.992 608.681 62.52 608.681 64.952V75H605.865ZM648.334 69.464C647.406 73.432 644.558 75.384 640.686 75.384C635.758 75.384 632.782 72.056 632.782 66.52C632.782 60.76 635.758 57.592 640.526 57.592C645.326 57.592 648.206 60.888 648.206 66.296V67H635.662C635.822 70.808 637.614 72.952 640.686 72.952C643.086 72.952 644.782 71.8 645.39 69.464H648.334ZM640.526 60.024C637.806 60.024 636.174 61.72 635.758 64.888H645.262C644.878 61.752 643.182 60.024 640.526 60.024ZM654.551 63.544H651.735C652.279 59.8 654.743 57.592 658.903 57.592C663.447 57.592 665.655 60.248 665.655 64.216V70.904C665.655 72.856 665.815 74.072 666.263 75H663.287C662.967 74.328 662.871 73.336 662.839 72.312C661.399 74.456 659.095 75.384 657.047 75.384C653.527 75.384 651.159 73.752 651.159 70.52C651.159 68.184 652.439 66.488 654.935 65.656C657.239 64.888 659.575 64.696 662.839 64.664V64.28C662.839 61.528 661.559 60.024 658.647 60.024C656.215 60.024 654.903 61.368 654.551 63.544ZM654.039 70.456C654.039 72.024 655.351 72.952 657.335 72.952C660.471 72.952 662.839 70.488 662.839 67.576V66.776C655.607 66.84 654.039 68.376 654.039 70.456ZM670.271 75V58.008H673.087V60.312C674.239 58.52 676.095 57.592 678.335 57.592C681.951 57.592 684.095 59.704 684.095 63.64V75H681.279V64.216C681.279 61.656 680.127 59.992 677.567 59.992C674.751 59.992 673.087 62.52 673.087 64.952V75H670.271ZM690.664 62.36C690.664 67.096 701.704 63.192 701.704 70.2C701.704 73.368 698.888 75.384 694.888 75.384C690.856 75.384 688.04 73.464 687.4 69.464H690.216C690.6 71.832 692.36 73.144 694.984 73.144C697.544 73.144 698.888 71.992 698.888 70.392C698.888 65.752 687.976 69.592 687.976 62.552C687.976 59.96 689.992 57.592 694.152 57.592C697.832 57.592 700.552 59.32 701.096 63.544H698.28C697.864 60.888 696.392 59.896 693.992 59.896C691.88 59.896 690.664 60.952 690.664 62.36ZM2.464 102.728L1.952 95.24H5.024L4.48 102.728H2.464ZM7.808 102.728L7.264 95.24H10.336L9.824 102.728H7.808ZM28.6005 105.864H25.7845C25.3365 103.272 23.6085 102.024 21.3685 102.024C18.2325 102.024 16.5685 104.328 16.5685 108.52C16.5685 112.648 18.3285 114.984 21.4645 114.984C23.7365 114.984 25.3685 113.768 25.9125 111.336H28.7285C27.9605 115.56 25.1125 117.384 21.4005 117.384C16.5685 117.384 13.6885 114.024 13.6885 108.52C13.6885 102.76 16.6325 99.592 21.3685 99.592C25.1125 99.592 28.0565 101.704 28.6005 105.864ZM32.2088 97.736V93.96H35.0248V97.736H32.2088ZM32.2088 117V100.008H35.0248V117H32.2088ZM39.49 117V100.008H42.306V102.632C43.458 100.552 45.282 99.592 47.33 99.592C48.002 99.592 48.61 99.752 48.93 100.008V102.536C48.45 102.376 47.842 102.312 47.17 102.312C43.778 102.312 42.306 104.424 42.306 107.496V117H39.49ZM65.163 105.864H62.347C61.899 103.272 60.171 102.024 57.931 102.024C54.795 102.024 53.131 104.328 53.131 108.52C53.131 112.648 54.891 114.984 58.027 114.984C60.299 114.984 61.931 113.768 62.475 111.336H65.291C64.523 115.56 61.675 117.384 57.963 117.384C53.131 117.384 50.251 114.024 50.251 108.52C50.251 102.76 53.195 99.592 57.931 99.592C61.675 99.592 64.619 101.704 65.163 105.864ZM68.7713 117V93.96H71.5873V117H68.7713ZM90.7405 111.464C89.8125 115.432 86.9645 117.384 83.0925 117.384C78.1645 117.384 75.1885 114.056 75.1885 108.52C75.1885 102.76 78.1645 99.592 82.9325 99.592C87.7325 99.592 90.6125 102.888 90.6125 108.296V109H78.0685C78.2285 112.808 80.0205 114.952 83.0925 114.952C85.4925 114.952 87.1885 113.8 87.7965 111.464H90.7405ZM82.9325 102.024C80.2125 102.024 78.5805 103.72 78.1645 106.888H87.6685C87.2845 103.752 85.5885 102.024 82.9325 102.024ZM107.683 117.384C102.819 117.384 99.9073 114.056 99.9073 108.52C99.9073 102.76 102.915 99.592 107.683 99.592C112.547 99.592 115.459 102.984 115.459 108.52C115.459 114.248 112.451 117.384 107.683 117.384ZM107.683 114.952C110.851 114.952 112.579 112.68 112.579 108.52C112.579 104.392 110.819 102.024 107.683 102.024C104.515 102.024 102.787 104.328 102.787 108.52C102.787 112.616 104.547 114.952 107.683 114.952ZM117.004 102.248V100.008H119.372V98.856C119.372 95.272 120.844 93.576 123.98 93.576C124.684 93.576 125.26 93.704 125.548 93.832V95.848H125.26C122.796 95.848 122.188 96.808 122.188 98.856V100.008H125.548V102.248H122.188V117H119.372V102.248H117.004ZM136.289 104.36C136.289 109.096 147.329 105.192 147.329 112.2C147.329 115.368 144.513 117.384 140.513 117.384C136.481 117.384 133.665 115.464 133.025 111.464H135.841C136.225 113.832 137.985 115.144 140.609 115.144C143.169 115.144 144.513 113.992 144.513 112.392C144.513 107.752 133.601 111.592 133.601 104.552C133.601 101.96 135.617 99.592 139.777 99.592C143.457 99.592 146.177 101.32 146.721 105.544H143.905C143.489 102.888 142.017 101.896 139.617 101.896C137.505 101.896 136.289 102.952 136.289 104.36ZM150.678 117V93.96H153.494V102.312C154.646 100.52 156.502 99.592 158.742 99.592C162.358 99.592 164.502 101.704 164.502 105.64V117H161.686V106.216C161.686 103.656 160.534 101.992 157.974 101.992C155.158 101.992 153.494 104.52 153.494 106.952V117H150.678ZM171.582 105.544H168.766C169.31 101.8 171.774 99.592 175.934 99.592C180.478 99.592 182.686 102.248 182.686 106.216V112.904C182.686 114.856 182.846 116.072 183.294 117H180.318C179.998 116.328 179.902 115.336 179.87 114.312C178.43 116.456 176.126 117.384 174.078 117.384C170.558 117.384 168.19 115.752 168.19 112.52C168.19 110.184 169.47 108.488 171.966 107.656C174.27 106.888 176.606 106.696 179.87 106.664V106.28C179.87 103.528 178.59 102.024 175.678 102.024C173.246 102.024 171.934 103.368 171.582 105.544ZM171.07 112.456C171.07 114.024 172.382 114.952 174.366 114.952C177.502 114.952 179.87 112.488 179.87 109.576V108.776C172.638 108.84 171.07 110.376 171.07 112.456ZM187.303 117V100.008H190.119V102.632C191.271 100.552 193.095 99.592 195.143 99.592C195.815 99.592 196.423 99.752 196.743 100.008V102.536C196.263 102.376 195.655 102.312 194.983 102.312C191.591 102.312 190.119 104.424 190.119 107.496V117H187.303ZM199.24 97.736V93.96H202.056V97.736H199.24ZM199.24 117V100.008H202.056V117H199.24ZM206.521 117V100.008H209.337V102.312C210.489 100.52 212.345 99.592 214.585 99.592C218.201 99.592 220.345 101.704 220.345 105.64V117H217.529V106.216C217.529 103.656 216.377 101.992 213.817 101.992C211.001 101.992 209.337 104.52 209.337 106.952V117H206.521ZM230.882 117.128C226.562 117.128 223.97 113.832 223.97 108.392C223.97 102.696 226.626 99.592 230.882 99.592C233.154 99.592 234.85 100.392 235.97 101.864V100.008H238.786V117.512C238.786 122.248 235.746 124.456 231.842 124.456C227.842 124.456 225.026 122.536 224.418 118.664H227.234C227.586 120.904 229.346 122.12 231.81 122.12C234.306 122.12 235.97 120.776 235.97 117.608V114.696C234.786 116.296 233.058 117.128 230.882 117.128ZM231.394 114.696C234.37 114.696 235.97 112.456 235.97 108.36C235.97 104.36 234.306 102.024 231.394 102.024C228.45 102.024 226.85 104.264 226.85 108.392C226.85 112.392 228.482 114.696 231.394 114.696ZM242.983 117V113.544H246.439V117H242.983ZM250.808 102.728L250.296 95.24H253.368L252.824 102.728H250.808ZM256.152 102.728L255.608 95.24H258.68L258.168 102.728H256.152Z" fill="#CBCBCB"/>
<path d="M316.309 150V128.24H319.253V150H316.309ZM323.99 150V133.008H326.806V135.312C327.958 133.52 329.814 132.592 332.054 132.592C335.67 132.592 337.814 134.704 337.814 138.64V150H334.998V139.216C334.998 136.656 333.846 134.992 331.286 134.992C328.47 134.992 326.806 137.52 326.806 139.952V150H323.99ZM354.292 150V130.736H346.836V128.24H364.692V130.736H357.236V150H354.292ZM367.488 138.544H364.672C365.216 134.8 367.68 132.592 371.84 132.592C376.384 132.592 378.592 135.248 378.592 139.216V145.904C378.592 147.856 378.752 149.072 379.2 150H376.224C375.904 149.328 375.808 148.336 375.776 147.312C374.336 149.456 372.032 150.384 369.984 150.384C366.464 150.384 364.096 148.752 364.096 145.52C364.096 143.184 365.376 141.488 367.872 140.656C370.176 139.888 372.512 139.696 375.776 139.664V139.28C375.776 136.528 374.496 135.024 371.584 135.024C369.152 135.024 367.84 136.368 367.488 138.544ZM366.976 145.456C366.976 147.024 368.288 147.952 370.272 147.952C373.408 147.952 375.776 145.488 375.776 142.576V141.776C368.544 141.84 366.976 143.376 366.976 145.456ZM383.209 150V133.008H386.025V135.632C387.177 133.552 389.001 132.592 391.049 132.592C391.721 132.592 392.329 132.752 392.649 133.008V135.536C392.169 135.376 391.561 135.312 390.889 135.312C387.497 135.312 386.025 137.424 386.025 140.496V150H383.209ZM397.426 138.544H394.61C395.154 134.8 397.618 132.592 401.778 132.592C406.322 132.592 408.53 135.248 408.53 139.216V145.904C408.53 147.856 408.69 149.072 409.138 150H406.162C405.842 149.328 405.746 148.336 405.714 147.312C404.274 149.456 401.97 150.384 399.922 150.384C396.402 150.384 394.034 148.752 394.034 145.52C394.034 143.184 395.314 141.488 397.81 140.656C400.114 139.888 402.45 139.696 405.714 139.664V139.28C405.714 136.528 404.434 135.024 401.522 135.024C399.09 135.024 397.778 136.368 397.426 138.544ZM396.914 145.456C396.914 147.024 398.226 147.952 400.21 147.952C403.346 147.952 405.714 145.488 405.714 142.576V141.776C398.482 141.84 396.914 143.376 396.914 145.456ZM413.146 150V126.96H415.962V135.312C417.114 133.52 418.97 132.592 421.21 132.592C424.826 132.592 426.97 134.704 426.97 138.64V150H424.154V139.216C424.154 136.656 423.002 134.992 420.442 134.992C417.626 134.992 415.962 137.52 415.962 139.952V150H413.146ZM442.275 143.056V133.008H445.091V150H442.275V147.696C441.123 149.488 439.331 150.384 437.123 150.384C433.571 150.384 431.459 148.304 431.459 144.368V133.008H434.275V143.792C434.275 146.352 435.395 147.984 437.891 147.984C440.643 147.984 442.275 145.488 442.275 143.056ZM449.584 150V133.008H452.4V135.184C453.488 133.456 455.184 132.592 457.264 132.592C459.6 132.592 461.296 133.616 462.096 135.6C463.216 133.616 465.072 132.592 467.344 132.592C470.8 132.592 472.88 134.704 472.88 138.64V150H470.064V139.216C470.064 136.656 469.04 134.992 466.736 134.992C464.176 134.992 462.64 137.52 462.64 139.952V150H459.824V139.216C459.824 136.656 458.8 134.992 456.496 134.992C453.936 134.992 452.4 137.52 452.4 139.952V150H449.584ZM479.957 138.544H477.141C477.685 134.8 480.149 132.592 484.309 132.592C488.853 132.592 491.061 135.248 491.061 139.216V145.904C491.061 147.856 491.221 149.072 491.669 150H488.693C488.373 149.328 488.277 148.336 488.245 147.312C486.805 149.456 484.501 150.384 482.453 150.384C478.933 150.384 476.565 148.752 476.565 145.52C476.565 143.184 477.845 141.488 480.341 140.656C482.645 139.888 484.981 139.696 488.245 139.664V139.28C488.245 136.528 486.965 135.024 484.053 135.024C481.621 135.024 480.309 136.368 479.957 138.544ZM479.445 145.456C479.445 147.024 480.757 147.952 482.741 147.952C485.877 147.952 488.245 145.488 488.245 142.576V141.776C481.013 141.84 479.445 143.376 479.445 145.456ZM495.678 150V133.008H498.494V135.632C499.646 133.552 501.47 132.592 503.518 132.592C504.19 132.592 504.798 132.752 505.118 133.008V135.536C504.638 135.376 504.03 135.312 503.358 135.312C499.966 135.312 498.494 137.424 498.494 140.496V150H495.678ZM509.895 138.544H507.079C507.623 134.8 510.087 132.592 514.247 132.592C518.791 132.592 520.999 135.248 520.999 139.216V145.904C520.999 147.856 521.159 149.072 521.607 150H518.631C518.311 149.328 518.215 148.336 518.183 147.312C516.743 149.456 514.439 150.384 512.391 150.384C508.871 150.384 506.503 148.752 506.503 145.52C506.503 143.184 507.783 141.488 510.279 140.656C512.583 139.888 514.919 139.696 518.183 139.664V139.28C518.183 136.528 516.903 135.024 513.991 135.024C511.559 135.024 510.247 136.368 509.895 138.544ZM509.383 145.456C509.383 147.024 510.695 147.952 512.679 147.952C515.815 147.952 518.183 145.488 518.183 142.576V141.776C510.951 141.84 509.383 143.376 509.383 145.456ZM546.069 138.864H543.253C542.805 136.272 541.077 135.024 538.837 135.024C535.701 135.024 534.037 137.328 534.037 141.52C534.037 145.648 535.797 147.984 538.933 147.984C541.205 147.984 542.837 146.768 543.381 144.336H546.197C545.429 148.56 542.581 150.384 538.869 150.384C534.037 150.384 531.157 147.024 531.157 141.52C531.157 135.76 534.101 132.592 538.837 132.592C542.581 132.592 545.525 134.704 546.069 138.864ZM560.494 143.056V133.008H563.31V150H560.494V147.696C559.342 149.488 557.55 150.384 555.342 150.384C551.79 150.384 549.678 148.304 549.678 144.368V133.008H552.494V143.792C552.494 146.352 553.614 147.984 556.11 147.984C558.862 147.984 560.494 145.488 560.494 143.056ZM567.803 150V126.96H570.619V150H567.803ZM575.468 145.104V135.248H573.1V133.008H575.468V129.104H578.284V133.008H582.028V135.248H578.284V145.104C578.284 147.152 578.892 148.112 581.388 148.112H581.964V150.128C581.644 150.288 580.94 150.384 580.14 150.384C576.972 150.384 575.468 148.688 575.468 145.104ZM595.525 143.056V133.008H598.341V150H595.525V147.696C594.373 149.488 592.581 150.384 590.373 150.384C586.821 150.384 584.709 148.304 584.709 144.368V133.008H587.525V143.792C587.525 146.352 588.645 147.984 591.141 147.984C593.893 147.984 595.525 145.488 595.525 143.056ZM602.834 150V133.008H605.65V135.632C606.802 133.552 608.626 132.592 610.674 132.592C611.346 132.592 611.954 132.752 612.274 133.008V135.536C611.794 135.376 611.186 135.312 610.514 135.312C607.122 135.312 605.65 137.424 605.65 140.496V150H602.834ZM629.147 144.464C628.219 148.432 625.371 150.384 621.499 150.384C616.571 150.384 613.595 147.056 613.595 141.52C613.595 135.76 616.571 132.592 621.339 132.592C626.139 132.592 629.019 135.888 629.019 141.296V142H616.475C616.635 145.808 618.427 147.952 621.499 147.952C623.899 147.952 625.595 146.8 626.203 144.464H629.147ZM621.339 135.024C618.619 135.024 616.987 136.72 616.571 139.888H626.075C625.691 136.752 623.995 135.024 621.339 135.024ZM631.826 150V146.544H635.282V148.4C635.282 151.376 634.802 153.2 633.682 155.28H632.082C632.818 153.36 633.234 151.984 633.234 150H631.826ZM645.834 130.736V126.96H648.65V130.736H645.834ZM645.834 150V133.008H648.65V150H645.834ZM653.499 145.104V135.248H651.131V133.008H653.499V129.104H656.315V133.008H660.059V135.248H656.315V145.104C656.315 147.152 656.923 148.112 659.419 148.112H659.995V150.128C659.675 150.288 658.971 150.384 658.171 150.384C655.003 150.384 653.499 148.688 653.499 145.104ZM669.146 130.736V126.96H671.962V130.736H669.146ZM669.146 150V133.008H671.962V150H669.146ZM678.508 137.36C678.508 142.096 689.548 138.192 689.548 145.2C689.548 148.368 686.732 150.384 682.732 150.384C678.7 150.384 675.884 148.464 675.243 144.464H678.06C678.444 146.832 680.204 148.144 682.828 148.144C685.388 148.144 686.732 146.992 686.732 145.392C686.732 140.752 675.82 144.592 675.82 137.552C675.82 134.96 677.836 132.592 681.996 132.592C685.676 132.592 688.396 134.32 688.94 138.544H686.124C685.708 135.888 684.236 134.896 681.836 134.896C679.724 134.896 678.508 135.952 678.508 137.36ZM699.687 145.104V135.248H697.319V133.008H699.687V129.104H702.503V133.008H706.247V135.248H702.503V145.104C702.503 147.152 703.111 148.112 705.607 148.112H706.183V150.128C705.863 150.288 705.159 150.384 704.359 150.384C701.191 150.384 699.687 148.688 699.687 145.104ZM708.928 150V126.96H711.744V135.312C712.896 133.52 714.752 132.592 716.992 132.592C720.608 132.592 722.752 134.704 722.752 138.64V150H719.936V139.216C719.936 136.656 718.784 134.992 716.224 134.992C713.408 134.992 711.744 137.52 711.744 139.952V150H708.928ZM741.928 144.464C741 148.432 738.152 150.384 734.28 150.384C729.352 150.384 726.376 147.056 726.376 141.52C726.376 135.76 729.352 132.592 734.12 132.592C738.92 132.592 741.8 135.888 741.8 141.296V142H729.256C729.416 145.808 731.208 147.952 734.28 147.952C736.68 147.952 738.376 146.8 738.984 144.464H741.928ZM734.12 135.024C731.4 135.024 729.768 136.72 729.352 139.888H738.856C738.472 136.752 736.776 135.024 734.12 135.024ZM766.007 138.864H763.191C762.743 136.272 761.015 135.024 758.775 135.024C755.639 135.024 753.975 137.328 753.975 141.52C753.975 145.648 755.735 147.984 758.871 147.984C761.143 147.984 762.775 146.768 763.319 144.336H766.135C765.367 148.56 762.519 150.384 758.807 150.384C753.975 150.384 751.095 147.024 751.095 141.52C751.095 135.76 754.039 132.592 758.775 132.592C762.519 132.592 765.463 134.704 766.007 138.864ZM776.527 150.384C771.663 150.384 768.751 147.056 768.751 141.52C768.751 135.76 771.759 132.592 776.527 132.592C781.391 132.592 784.303 135.984 784.303 141.52C784.303 147.248 781.295 150.384 776.527 150.384ZM776.527 147.952C779.695 147.952 781.423 145.68 781.423 141.52C781.423 137.392 779.663 135.024 776.527 135.024C773.359 135.024 771.631 137.328 771.631 141.52C771.631 145.616 773.391 147.952 776.527 147.952ZM787.928 150V133.008H790.744V135.184C791.832 133.456 793.528 132.592 795.608 132.592C797.944 132.592 799.64 133.616 800.44 135.6C801.56 133.616 803.416 132.592 805.688 132.592C809.144 132.592 811.224 134.704 811.224 138.64V150H808.408V139.216C808.408 136.656 807.384 134.992 805.08 134.992C802.52 134.992 800.984 137.52 800.984 139.952V150H798.168V139.216C798.168 136.656 797.144 134.992 794.84 134.992C792.28 134.992 790.744 137.52 790.744 139.952V150H787.928ZM815.709 150V133.008H818.525V135.184C819.613 133.456 821.309 132.592 823.389 132.592C825.725 132.592 827.421 133.616 828.221 135.6C829.341 133.616 831.197 132.592 833.469 132.592C836.925 132.592 839.005 134.704 839.005 138.64V150H836.189V139.216C836.189 136.656 835.165 134.992 832.861 134.992C830.301 134.992 828.765 137.52 828.765 139.952V150H825.949V139.216C825.949 136.656 824.925 134.992 822.621 134.992C820.061 134.992 818.525 137.52 818.525 139.952V150H815.709ZM854.306 143.056V133.008H857.122V150H854.306V147.696C853.154 149.488 851.362 150.384 849.154 150.384C845.602 150.384 843.49 148.304 843.49 144.368V133.008H846.306V143.792C846.306 146.352 847.426 147.984 849.922 147.984C852.674 147.984 854.306 145.488 854.306 143.056ZM861.615 150V133.008H864.431V135.312C865.583 133.52 867.439 132.592 869.679 132.592C873.295 132.592 875.439 134.704 875.439 138.64V150H872.623V139.216C872.623 136.656 871.471 134.992 868.911 134.992C866.095 134.992 864.431 137.52 864.431 139.952V150H861.615ZM879.928 130.736V126.96H882.744V130.736H879.928ZM879.928 150V133.008H882.744V150H879.928ZM887.593 145.104V135.248H885.225V133.008H887.593V129.104H890.409V133.008H894.153V135.248H890.409V145.104C890.409 147.152 891.017 148.112 893.513 148.112H894.089V150.128C893.769 150.288 893.065 150.384 892.265 150.384C889.097 150.384 887.593 148.688 887.593 145.104ZM897.602 157.424C896.962 157.424 896.29 157.264 895.938 157.168V154.992H896.802C898.882 154.992 899.458 154.576 901.122 150.768L901.698 149.456L894.754 133.008H897.794L902.402 144.24L903.17 146.512L903.938 144.24L908.418 133.008H911.298L903.362 152.24C901.666 156.336 900.546 157.424 897.602 157.424ZM911.139 150V146.544H914.595V148.4C914.595 151.376 914.115 153.2 912.995 155.28H911.395C912.131 153.36 912.547 151.984 912.547 150H911.139ZM925.146 150V133.008H927.962V135.632C929.114 133.552 930.938 132.592 932.986 132.592C933.658 132.592 934.266 132.752 934.586 133.008V135.536C934.106 135.376 933.498 135.312 932.826 135.312C929.434 135.312 927.962 137.424 927.962 140.496V150H925.146ZM939.363 138.544H936.547C937.091 134.8 939.555 132.592 943.715 132.592C948.259 132.592 950.467 135.248 950.467 139.216V145.904C950.467 147.856 950.627 149.072 951.075 150H948.099C947.779 149.328 947.683 148.336 947.651 147.312C946.211 149.456 943.907 150.384 941.859 150.384C938.339 150.384 935.971 148.752 935.971 145.52C935.971 143.184 937.251 141.488 939.747 140.656C942.051 139.888 944.387 139.696 947.651 139.664V139.28C947.651 136.528 946.371 135.024 943.459 135.024C941.027 135.024 939.715 136.368 939.363 138.544ZM938.851 145.456C938.851 147.024 940.163 147.952 942.147 147.952C945.283 147.952 947.651 145.488 947.651 142.576V141.776C940.419 141.84 938.851 143.376 938.851 145.456ZM955.468 145.104V135.248H953.1V133.008H955.468V129.104H958.284V133.008H962.028V135.248H958.284V145.104C958.284 147.152 958.892 148.112 961.388 148.112H961.964V150.128C961.644 150.288 960.94 150.384 960.14 150.384C956.972 150.384 955.468 148.688 955.468 145.104ZM964.709 150V126.96H967.525V135.312C968.677 133.52 970.533 132.592 972.773 132.592C976.389 132.592 978.533 134.704 978.533 138.64V150H975.717V139.216C975.717 136.656 974.565 134.992 972.005 134.992C969.189 134.992 967.525 137.52 967.525 139.952V150H964.709ZM997.709 144.464C996.781 148.432 993.933 150.384 990.061 150.384C985.133 150.384 982.157 147.056 982.157 141.52C982.157 135.76 985.133 132.592 989.901 132.592C994.701 132.592 997.581 135.888 997.581 141.296V142H985.037C985.197 145.808 986.989 147.952 990.061 147.952C992.461 147.952 994.157 146.8 994.765 144.464H997.709ZM989.901 135.024C987.181 135.024 985.549 136.72 985.133 139.888H994.637C994.253 136.752 992.557 135.024 989.901 135.024ZM1001.33 150V133.008H1004.15V135.632C1005.3 133.552 1007.13 132.592 1009.17 132.592C1009.85 132.592 1010.45 132.752 1010.77 133.008V135.536C1010.29 135.376 1009.69 135.312 1009.01 135.312C1005.62 135.312 1004.15 137.424 1004.15 140.496V150H1001.33ZM1020.06 145.104V135.248H1017.69V133.008H1020.06V129.104H1022.88V133.008H1026.62V135.248H1022.88V145.104C1022.88 147.152 1023.49 148.112 1025.98 148.112H1026.56V150.128C1026.24 150.288 1025.53 150.384 1024.73 150.384C1021.57 150.384 1020.06 148.688 1020.06 145.104ZM1029.3 150V126.96H1032.12V135.312C1033.27 133.52 1035.13 132.592 1037.37 132.592C1040.98 132.592 1043.13 134.704 1043.13 138.64V150H1040.31V139.216C1040.31 136.656 1039.16 134.992 1036.6 134.992C1033.78 134.992 1032.12 137.52 1032.12 139.952V150H1029.3ZM1050.21 138.544H1047.39C1047.94 134.8 1050.4 132.592 1054.56 132.592C1059.1 132.592 1061.31 135.248 1061.31 139.216V145.904C1061.31 147.856 1061.47 149.072 1061.92 150H1058.94C1058.62 149.328 1058.53 148.336 1058.5 147.312C1057.06 149.456 1054.75 150.384 1052.7 150.384C1049.18 150.384 1046.82 148.752 1046.82 145.52C1046.82 143.184 1048.1 141.488 1050.59 140.656C1052.9 139.888 1055.23 139.696 1058.5 139.664V139.28C1058.5 136.528 1057.22 135.024 1054.3 135.024C1051.87 135.024 1050.56 136.368 1050.21 138.544ZM1049.7 145.456C1049.7 147.024 1051.01 147.952 1052.99 147.952C1056.13 147.952 1058.5 145.488 1058.5 142.576V141.776C1051.26 141.84 1049.7 143.376 1049.7 145.456ZM1065.93 150V133.008H1068.74V135.312C1069.9 133.52 1071.75 132.592 1073.99 132.592C1077.61 132.592 1079.75 134.704 1079.75 138.64V150H1076.94V139.216C1076.94 136.656 1075.78 134.992 1073.22 134.992C1070.41 134.992 1068.74 137.52 1068.74 139.952V150H1065.93ZM356.062 187.104V177.248H353.694V175.008H356.062V171.104H358.878V175.008H362.622V177.248H358.878V187.104C358.878 189.152 359.486 190.112 361.982 190.112H362.558V192.128C362.238 192.288 361.534 192.384 360.734 192.384C357.566 192.384 356.062 190.688 356.062 187.104ZM365.303 192V168.96H368.119V177.312C369.271 175.52 371.127 174.592 373.367 174.592C376.983 174.592 379.127 176.704 379.127 180.64V192H376.311V181.216C376.311 178.656 375.159 176.992 372.599 176.992C369.783 176.992 368.119 179.52 368.119 181.952V192H365.303ZM398.303 186.464C397.375 190.432 394.527 192.384 390.655 192.384C385.727 192.384 382.751 189.056 382.751 183.52C382.751 177.76 385.727 174.592 390.495 174.592C395.295 174.592 398.175 177.888 398.175 183.296V184H385.631C385.791 187.808 387.583 189.952 390.655 189.952C393.055 189.952 394.751 188.8 395.359 186.464H398.303ZM390.495 177.024C387.775 177.024 386.143 178.72 385.727 181.888H395.231C394.847 178.752 393.151 177.024 390.495 177.024ZM408.334 172.736V168.96H411.15V172.736H408.334ZM408.334 192V175.008H411.15V192H408.334ZM415.615 192V175.008H418.431V177.312C419.583 175.52 421.439 174.592 423.679 174.592C427.295 174.592 429.439 176.704 429.439 180.64V192H426.623V181.216C426.623 178.656 425.471 176.992 422.911 176.992C420.095 176.992 418.431 179.52 418.431 181.952V192H415.615ZM440.296 192.384C435.784 192.384 433.064 189.056 433.064 183.52C433.064 177.76 435.848 174.592 440.296 174.592C442.312 174.592 443.944 175.424 445.064 176.992V168.96H447.88V192H445.064V189.856C443.944 191.456 442.312 192.384 440.296 192.384ZM440.488 189.952C443.464 189.952 445.064 187.68 445.064 183.52C445.064 179.392 443.4 177.024 440.488 177.024C437.544 177.024 435.944 179.328 435.944 183.52C435.944 187.616 437.608 189.952 440.488 189.952ZM452.365 172.736V168.96H455.181V172.736H452.365ZM452.365 192V175.008H455.181V192H452.365ZM463.902 192L457.566 175.008H460.606L465.31 188.192L465.726 189.664L466.142 188.192L470.846 175.008H473.694L467.358 192H463.902ZM476.084 172.736V168.96H478.9V172.736H476.084ZM476.084 192V175.008H478.9V192H476.084ZM489.733 192.384C485.221 192.384 482.501 189.056 482.501 183.52C482.501 177.76 485.285 174.592 489.733 174.592C491.749 174.592 493.381 175.424 494.501 176.992V168.96H497.317V192H494.501V189.856C493.381 191.456 491.749 192.384 489.733 192.384ZM489.925 189.952C492.901 189.952 494.501 187.68 494.501 183.52C494.501 179.392 492.837 177.024 489.925 177.024C486.981 177.024 485.381 179.328 485.381 183.52C485.381 187.616 487.045 189.952 489.925 189.952ZM512.619 185.056V175.008H515.435V192H512.619V189.696C511.467 191.488 509.675 192.384 507.467 192.384C503.915 192.384 501.803 190.304 501.803 186.368V175.008H504.619V185.792C504.619 188.352 505.739 189.984 508.235 189.984C510.987 189.984 512.619 187.488 512.619 185.056ZM522.52 180.544H519.704C520.248 176.8 522.712 174.592 526.872 174.592C531.416 174.592 533.624 177.248 533.624 181.216V187.904C533.624 189.856 533.784 191.072 534.232 192H531.256C530.936 191.328 530.84 190.336 530.808 189.312C529.368 191.456 527.064 192.384 525.016 192.384C521.496 192.384 519.128 190.752 519.128 187.52C519.128 185.184 520.408 183.488 522.904 182.656C525.208 181.888 527.544 181.696 530.808 181.664V181.28C530.808 178.528 529.528 177.024 526.616 177.024C524.184 177.024 522.872 178.368 522.52 180.544ZM522.008 187.456C522.008 189.024 523.32 189.952 525.304 189.952C528.44 189.952 530.808 187.488 530.808 184.576V183.776C523.576 183.84 522.008 185.376 522.008 187.456ZM538.24 192V168.96H541.056V192H538.24ZM545.201 192V188.544H548.657V190.4C548.657 193.376 548.177 195.2 547.057 197.28H545.457C546.193 195.36 546.609 193.984 546.609 192H545.201ZM559.593 187.104V177.248H557.225V175.008H559.593V171.104H562.409V175.008H566.153V177.248H562.409V187.104C562.409 189.152 563.017 190.112 565.513 190.112H566.089V192.128C565.769 192.288 565.065 192.384 564.265 192.384C561.097 192.384 559.593 190.688 559.593 187.104ZM568.834 192V168.96H571.65V177.312C572.802 175.52 574.658 174.592 576.898 174.592C580.514 174.592 582.658 176.704 582.658 180.64V192H579.842V181.216C579.842 178.656 578.69 176.992 576.13 176.992C573.314 176.992 571.65 179.52 571.65 181.952V192H568.834ZM601.834 186.464C600.906 190.432 598.058 192.384 594.186 192.384C589.258 192.384 586.282 189.056 586.282 183.52C586.282 177.76 589.258 174.592 594.026 174.592C598.826 174.592 601.706 177.888 601.706 183.296V184H589.162C589.322 187.808 591.114 189.952 594.186 189.952C596.586 189.952 598.282 188.8 598.89 186.464H601.834ZM594.026 177.024C591.306 177.024 589.674 178.72 589.258 181.888H598.762C598.378 178.752 596.682 177.024 594.026 177.024ZM618.777 192.384C613.913 192.384 611.001 189.056 611.001 183.52C611.001 177.76 614.009 174.592 618.777 174.592C623.641 174.592 626.553 177.984 626.553 183.52C626.553 189.248 623.545 192.384 618.777 192.384ZM618.777 189.952C621.945 189.952 623.673 187.68 623.673 183.52C623.673 179.392 621.913 177.024 618.777 177.024C615.609 177.024 613.881 179.328 613.881 183.52C613.881 187.616 615.641 189.952 618.777 189.952ZM644.585 192L640.905 179.296L640.521 177.376L640.137 179.296L636.489 192H633.001L627.945 175.008H630.985L634.473 188.192L634.889 189.92L635.305 188.192L639.177 175.008H642.217L646.089 188.192L646.473 189.856L646.825 188.192L650.313 175.008H653.225L648.137 192H644.585ZM655.771 192V175.008H658.587V177.312C659.739 175.52 661.595 174.592 663.835 174.592C667.451 174.592 669.595 176.704 669.595 180.64V192H666.779V181.216C666.779 178.656 665.627 176.992 663.067 176.992C660.251 176.992 658.587 179.52 658.587 181.952V192H655.771ZM688.772 186.464C687.844 190.432 684.996 192.384 681.124 192.384C676.196 192.384 673.22 189.056 673.22 183.52C673.22 177.76 676.196 174.592 680.964 174.592C685.764 174.592 688.644 177.888 688.644 183.296V184H676.1C676.26 187.808 678.052 189.952 681.124 189.952C683.524 189.952 685.22 188.8 685.828 186.464H688.772ZM680.964 177.024C678.244 177.024 676.612 178.72 676.196 181.888H685.7C685.316 178.752 683.62 177.024 680.964 177.024ZM692.396 192V175.008H695.212V177.632C696.364 175.552 698.188 174.592 700.236 174.592C700.908 174.592 701.516 174.752 701.836 175.008V177.536C701.356 177.376 700.748 177.312 700.076 177.312C696.684 177.312 695.212 179.424 695.212 182.496V192H692.396ZM717.652 192.384C712.788 192.384 709.876 189.056 709.876 183.52C709.876 177.76 712.884 174.592 717.652 174.592C722.516 174.592 725.428 177.984 725.428 183.52C725.428 189.248 722.42 192.384 717.652 192.384ZM717.652 189.952C720.82 189.952 722.548 187.68 722.548 183.52C722.548 179.392 720.788 177.024 717.652 177.024C714.484 177.024 712.756 179.328 712.756 183.52C712.756 187.616 714.516 189.952 717.652 189.952ZM726.973 177.248V175.008H729.341V173.856C729.341 170.272 730.812 168.576 733.949 168.576C734.653 168.576 735.229 168.704 735.517 168.832V170.848H735.229C732.765 170.848 732.157 171.808 732.157 173.856V175.008H735.517V177.248H732.157V192H729.341V177.248H726.973ZM747.026 199.04H744.21V175.008H747.026V177.12C748.146 175.52 749.778 174.592 751.794 174.592C756.306 174.592 759.026 177.92 759.026 183.456C759.026 189.216 756.242 192.384 751.794 192.384C749.778 192.384 748.146 191.552 747.026 189.984V199.04ZM751.602 177.024C748.626 177.024 747.026 179.296 747.026 183.456C747.026 187.584 748.69 189.952 751.602 189.952C754.546 189.952 756.146 187.648 756.146 183.456C756.146 179.36 754.482 177.024 751.602 177.024ZM762.646 192V175.008H765.462V177.632C766.614 175.552 768.438 174.592 770.486 174.592C771.158 174.592 771.766 174.752 772.086 175.008V177.536C771.606 177.376 770.998 177.312 770.326 177.312C766.934 177.312 765.462 179.424 765.462 182.496V192H762.646ZM788.959 186.464C788.031 190.432 785.183 192.384 781.311 192.384C776.383 192.384 773.407 189.056 773.407 183.52C773.407 177.76 776.383 174.592 781.151 174.592C785.951 174.592 788.831 177.888 788.831 183.296V184H776.287C776.447 187.808 778.239 189.952 781.311 189.952C783.711 189.952 785.407 188.8 786.015 186.464H788.959ZM781.151 177.024C778.431 177.024 776.799 178.72 776.383 181.888H785.887C785.503 178.752 783.807 177.024 781.151 177.024ZM792.968 187.104V177.248H790.6V175.008H792.968V171.104H795.784V175.008H799.528V177.248H795.784V187.104C795.784 189.152 796.392 190.112 798.888 190.112H799.464V192.128C799.144 192.288 798.44 192.384 797.64 192.384C794.472 192.384 792.968 190.688 792.968 187.104ZM802.593 187.104V177.248H800.225V175.008H802.593V171.104H805.409V175.008H809.153V177.248H805.409V187.104C805.409 189.152 806.017 190.112 808.513 190.112H809.089V192.128C808.769 192.288 808.065 192.384 807.265 192.384C804.097 192.384 802.593 190.688 802.593 187.104ZM812.602 199.424C811.962 199.424 811.29 199.264 810.938 199.168V196.992H811.802C813.882 196.992 814.458 196.576 816.122 192.768L816.698 191.456L809.754 175.008H812.794L817.402 186.24L818.17 188.512L818.938 186.24L823.418 175.008H826.298L818.362 194.24C816.666 198.336 815.546 199.424 812.602 199.424ZM835.115 192V175.008H837.931V177.184C839.019 175.456 840.715 174.592 842.795 174.592C845.131 174.592 846.827 175.616 847.627 177.6C848.747 175.616 850.603 174.592 852.875 174.592C856.331 174.592 858.411 176.704 858.411 180.64V192H855.595V181.216C855.595 178.656 854.571 176.992 852.267 176.992C849.707 176.992 848.171 179.52 848.171 181.952V192H845.355V181.216C845.355 178.656 844.331 176.992 842.027 176.992C839.467 176.992 837.931 179.52 837.931 181.952V192H835.115ZM873.712 185.056V175.008H876.528V192H873.712V189.696C872.56 191.488 870.768 192.384 868.56 192.384C865.008 192.384 862.896 190.304 862.896 186.368V175.008H865.712V185.792C865.712 188.352 866.832 189.984 869.328 189.984C872.08 189.984 873.712 187.488 873.712 185.056ZM895.069 180.864H892.253C891.805 178.272 890.077 177.024 887.837 177.024C884.701 177.024 883.037 179.328 883.037 183.52C883.037 187.648 884.797 189.984 887.933 189.984C890.205 189.984 891.837 188.768 892.381 186.336H895.197C894.429 190.56 891.581 192.384 887.869 192.384C883.037 192.384 880.157 189.024 880.157 183.52C880.157 177.76 883.101 174.592 887.837 174.592C891.581 174.592 894.525 176.704 895.069 180.864ZM898.678 192V168.96H901.494V177.312C902.646 175.52 904.502 174.592 906.742 174.592C910.358 174.592 912.502 176.704 912.502 180.64V192H909.686V181.216C909.686 178.656 908.534 176.992 905.974 176.992C903.158 176.992 901.494 179.52 901.494 181.952V192H898.678ZM938.084 186.464C937.156 190.432 934.308 192.384 930.436 192.384C925.508 192.384 922.532 189.056 922.532 183.52C922.532 177.76 925.508 174.592 930.276 174.592C935.076 174.592 937.956 177.888 937.956 183.296V184H925.412C925.572 187.808 927.364 189.952 930.436 189.952C932.836 189.952 934.532 188.8 935.14 186.464H938.084ZM930.276 177.024C927.556 177.024 925.924 178.72 925.508 181.888H935.012C934.628 178.752 932.932 177.024 930.276 177.024ZM945.652 192L939.316 175.008H942.356L947.06 188.192L947.476 189.664L947.892 188.192L952.596 175.008H955.444L949.108 192H945.652ZM972.522 186.464C971.594 190.432 968.746 192.384 964.874 192.384C959.946 192.384 956.97 189.056 956.97 183.52C956.97 177.76 959.946 174.592 964.714 174.592C969.514 174.592 972.394 177.888 972.394 183.296V184H959.85C960.01 187.808 961.802 189.952 964.874 189.952C967.274 189.952 968.97 188.8 969.578 186.464H972.522ZM964.714 177.024C961.994 177.024 960.362 178.72 959.946 181.888H969.45C969.066 178.752 967.37 177.024 964.714 177.024ZM976.146 192V175.008H978.962V177.632C980.114 175.552 981.938 174.592 983.986 174.592C984.658 174.592 985.266 174.752 985.586 175.008V177.536C985.106 177.376 984.498 177.312 983.826 177.312C980.434 177.312 978.962 179.424 978.962 182.496V192H976.146ZM988.852 199.424C988.212 199.424 987.54 199.264 987.188 199.168V196.992H988.052C990.132 196.992 990.708 196.576 992.372 192.768L992.948 191.456L986.004 175.008H989.044L993.652 186.24L994.42 188.512L995.188 186.24L999.668 175.008H1002.55L994.612 194.24C992.916 198.336 991.796 199.424 988.852 199.424ZM1005.34 187.104V177.248H1002.97V175.008H1005.34V171.104H1008.16V175.008H1011.9V177.248H1008.16V187.104C1008.16 189.152 1008.77 190.112 1011.26 190.112H1011.84V192.128C1011.52 192.288 1010.81 192.384 1010.01 192.384C1006.85 192.384 1005.34 190.688 1005.34 187.104ZM1014.58 192V168.96H1017.4V177.312C1018.55 175.52 1020.41 174.592 1022.65 174.592C1026.26 174.592 1028.41 176.704 1028.41 180.64V192H1025.59V181.216C1025.59 178.656 1024.44 176.992 1021.88 176.992C1019.06 176.992 1017.4 179.52 1017.4 181.952V192H1014.58ZM1032.9 172.736V168.96H1035.71V172.736H1032.9ZM1032.9 192V175.008H1035.71V192H1032.9ZM1040.18 192V175.008H1042.99V177.312C1044.15 175.52 1046 174.592 1048.24 174.592C1051.86 174.592 1054 176.704 1054 180.64V192H1051.19V181.216C1051.19 178.656 1050.03 176.992 1047.47 176.992C1044.66 176.992 1042.99 179.52 1042.99 181.952V192H1040.18ZM1064.54 192.128C1060.22 192.128 1057.63 188.832 1057.63 183.392C1057.63 177.696 1060.28 174.592 1064.54 174.592C1066.81 174.592 1068.51 175.392 1069.63 176.864V175.008H1072.44V192.512C1072.44 197.248 1069.4 199.456 1065.5 199.456C1061.5 199.456 1058.68 197.536 1058.07 193.664H1060.89C1061.24 195.904 1063 197.12 1065.47 197.12C1067.96 197.12 1069.63 195.776 1069.63 192.608V189.696C1068.44 191.296 1066.71 192.128 1064.54 192.128ZM1065.05 189.696C1068.03 189.696 1069.63 187.456 1069.63 183.36C1069.63 179.36 1067.96 177.024 1065.05 177.024C1062.11 177.024 1060.51 179.264 1060.51 183.392C1060.51 187.392 1062.14 189.696 1065.05 189.696ZM1076.64 192V188.544H1080.09V192H1076.64Z" fill="#CBCBCB"/>
</svg>
