<svg width="831" height="194" viewBox="0 0 831 194" fill="none" xmlns="http://www.w3.org/2000/svg">
<path d="M24.768 37L19.476 18.928L18.936 16.948L18.36 18.928L13.068 37H9.144L1.368 12.52H4.896L10.692 31.672L11.196 33.508L11.664 31.672L17.244 12.52H20.808L26.352 31.672L26.82 33.508L27.288 31.672L33.048 12.52H36.432L28.656 37H24.768ZM46.4718 37.432C40.9998 37.432 37.7238 33.688 37.7238 27.46C37.7238 20.98 41.1078 17.416 46.4718 17.416C51.9438 17.416 55.2198 21.232 55.2198 27.46C55.2198 33.904 51.8358 37.432 46.4718 37.432ZM46.4718 34.696C50.0358 34.696 51.9798 32.14 51.9798 27.46C51.9798 22.816 49.9998 20.152 46.4718 20.152C42.9078 20.152 40.9638 22.744 40.9638 27.46C40.9638 32.068 42.9438 34.696 46.4718 34.696ZM59.2973 37V17.884H62.4653V20.836C63.7613 18.496 65.8133 17.416 68.1173 17.416C68.8733 17.416 69.5573 17.596 69.9173 17.884V20.728C69.3773 20.548 68.6933 20.476 67.9373 20.476C64.1213 20.476 62.4653 22.852 62.4653 26.308V37H59.2973ZM72.727 37V11.08H75.895V26.092L84.139 17.884H88.027L79.315 26.416L88.531 37H84.499L75.895 27.244V37H72.727ZM91.6059 15.328V11.08H94.7739V15.328H91.6059ZM91.6059 37V17.884H94.7739V37H91.6059ZM99.7973 37V17.884H102.965V20.476C104.261 18.46 106.349 17.416 108.869 17.416C112.937 17.416 115.349 19.792 115.349 24.22V37H112.181V24.868C112.181 21.988 110.885 20.116 108.005 20.116C104.837 20.116 102.965 22.96 102.965 25.696V37H99.7973ZM127.203 37.144C122.343 37.144 119.427 33.436 119.427 27.316C119.427 20.908 122.415 17.416 127.203 17.416C129.759 17.416 131.667 18.316 132.927 19.972V17.884H136.095V37.576C136.095 42.904 132.675 45.388 128.283 45.388C123.783 45.388 120.615 43.228 119.931 38.872H123.099C123.495 41.392 125.475 42.76 128.247 42.76C131.055 42.76 132.927 41.248 132.927 37.684V34.408C131.595 36.208 129.651 37.144 127.203 37.144ZM127.779 34.408C131.127 34.408 132.927 31.888 132.927 27.28C132.927 22.78 131.055 20.152 127.779 20.152C124.467 20.152 122.667 22.672 122.667 27.316C122.667 31.816 124.503 34.408 127.779 34.408ZM164.943 37L160.803 22.708L160.371 20.548L159.939 22.708L155.835 37H151.911L146.223 17.884H149.643L153.567 32.716L154.035 34.66L154.503 32.716L158.859 17.884H162.279L166.635 32.716L167.067 34.588L167.463 32.716L171.387 17.884H174.663L168.939 37H164.943ZM177.528 15.328V11.08H180.696V15.328H177.528ZM177.528 37V17.884H180.696V37H177.528ZM186.151 31.492V20.404H183.487V17.884H186.151V13.492H189.319V17.884H193.531V20.404H189.319V31.492C189.319 33.796 190.003 34.876 192.811 34.876H193.459V37.144C193.099 37.324 192.307 37.432 191.407 37.432C187.843 37.432 186.151 35.524 186.151 31.492ZM196.547 37V11.08H199.715V20.476C201.011 18.46 203.099 17.416 205.619 17.416C209.687 17.416 212.099 19.792 212.099 24.22V37H208.931V24.868C208.931 21.988 207.635 20.116 204.755 20.116C201.587 20.116 199.715 22.96 199.715 25.696V37H196.547ZM224.788 31.492V20.404H222.124V17.884H224.788V13.492H227.956V17.884H232.168V20.404H227.956V31.492C227.956 33.796 228.64 34.876 231.448 34.876H232.096V37.144C231.736 37.324 230.944 37.432 230.044 37.432C226.48 37.432 224.788 35.524 224.788 31.492ZM235.184 37V11.08H238.352V20.476C239.648 18.46 241.736 17.416 244.256 17.416C248.324 17.416 250.736 19.792 250.736 24.22V37H247.568V24.868C247.568 21.988 246.272 20.116 243.392 20.116C240.224 20.116 238.352 22.96 238.352 25.696V37H235.184ZM272.31 30.772C271.266 35.236 268.062 37.432 263.706 37.432C258.162 37.432 254.814 33.688 254.814 27.46C254.814 20.98 258.162 17.416 263.526 17.416C268.926 17.416 272.166 21.124 272.166 27.208V28H258.054C258.234 32.284 260.25 34.696 263.706 34.696C266.406 34.696 268.314 33.4 268.998 30.772H272.31ZM263.526 20.152C260.466 20.152 258.63 22.06 258.162 25.624H268.854C268.422 22.096 266.514 20.152 263.526 20.152ZM283.594 37V17.884H286.762V20.836C288.058 18.496 290.11 17.416 292.414 17.416C293.17 17.416 293.854 17.596 294.214 17.884V20.728C293.674 20.548 292.99 20.476 292.234 20.476C288.418 20.476 286.762 22.852 286.762 26.308V37H283.594ZM304.448 37.432C298.976 37.432 295.7 33.688 295.7 27.46C295.7 20.98 299.084 17.416 304.448 17.416C309.92 17.416 313.196 21.232 313.196 27.46C313.196 33.904 309.812 37.432 304.448 37.432ZM304.448 34.696C308.012 34.696 309.956 32.14 309.956 27.46C309.956 22.816 307.976 20.152 304.448 20.152C300.884 20.152 298.94 22.744 298.94 27.46C298.94 32.068 300.92 34.696 304.448 34.696ZM329.442 29.188V17.884H332.61V37H329.442V34.408C328.146 36.424 326.13 37.432 323.646 37.432C319.65 37.432 317.274 35.092 317.274 30.664V17.884H320.442V30.016C320.442 32.896 321.702 34.732 324.51 34.732C327.606 34.732 329.442 31.924 329.442 29.188ZM344.469 37.144C339.609 37.144 336.693 33.436 336.693 27.316C336.693 20.908 339.681 17.416 344.469 17.416C347.025 17.416 348.933 18.316 350.193 19.972V17.884H353.361V37.576C353.361 42.904 349.941 45.388 345.549 45.388C341.049 45.388 337.881 43.228 337.197 38.872H340.365C340.761 41.392 342.741 42.76 345.513 42.76C348.321 42.76 350.193 41.248 350.193 37.684V34.408C348.861 36.208 346.917 37.144 344.469 37.144ZM345.045 34.408C348.393 34.408 350.193 31.888 350.193 27.28C350.193 22.78 348.321 20.152 345.045 20.152C341.733 20.152 339.933 22.672 339.933 27.316C339.933 31.816 341.769 34.408 345.045 34.408ZM358.442 37V11.08H361.61V20.476C362.906 18.46 364.994 17.416 367.514 17.416C371.582 17.416 373.994 19.792 373.994 24.22V37H370.826V24.868C370.826 21.988 369.53 20.116 366.65 20.116C363.482 20.116 361.61 22.96 361.61 25.696V37H358.442ZM379.043 37V17.884H382.211V20.476C383.507 18.46 385.595 17.416 388.115 17.416C392.183 17.416 394.595 19.792 394.595 24.22V37H391.427V24.868C391.427 21.988 390.131 20.116 387.251 20.116C384.083 20.116 382.211 22.96 382.211 25.696V37H379.043ZM416.169 30.772C415.125 35.236 411.921 37.432 407.565 37.432C402.021 37.432 398.673 33.688 398.673 27.46C398.673 20.98 402.021 17.416 407.385 17.416C412.785 17.416 416.025 21.124 416.025 27.208V28H401.913C402.093 32.284 404.109 34.696 407.565 34.696C410.265 34.696 412.173 33.4 412.857 30.772H416.169ZM407.385 20.152C404.325 20.152 402.489 22.06 402.021 25.624H412.713C412.281 22.096 410.373 20.152 407.385 20.152ZM422.587 22.78C422.587 28.108 435.007 23.716 435.007 31.6C435.007 35.164 431.839 37.432 427.339 37.432C422.803 37.432 419.635 35.272 418.915 30.772H422.083C422.515 33.436 424.495 34.912 427.447 34.912C430.327 34.912 431.839 33.616 431.839 31.816C431.839 26.596 419.563 30.916 419.563 22.996C419.563 20.08 421.831 17.416 426.511 17.416C430.651 17.416 433.711 19.36 434.323 24.112H431.155C430.687 21.124 429.031 20.008 426.331 20.008C423.955 20.008 422.587 21.196 422.587 22.78ZM441.114 22.78C441.114 28.108 453.534 23.716 453.534 31.6C453.534 35.164 450.366 37.432 445.866 37.432C441.33 37.432 438.162 35.272 437.442 30.772H440.61C441.042 33.436 443.022 34.912 445.974 34.912C448.854 34.912 450.366 33.616 450.366 31.816C450.366 26.596 438.09 30.916 438.09 22.996C438.09 20.08 440.358 17.416 445.038 17.416C449.178 17.416 452.238 19.36 452.85 24.112H449.682C449.214 21.124 447.558 20.008 444.858 20.008C442.482 20.008 441.114 21.196 441.114 22.78ZM456.941 37V33.112H460.829V35.2C460.829 38.548 460.289 40.6 459.029 42.94H457.229C458.057 40.78 458.525 39.232 458.525 37H456.941ZM473.564 45.352C472.844 45.352 472.088 45.172 471.692 45.064V42.616H472.664C475.004 42.616 475.652 42.148 477.524 37.864L478.172 36.388L470.36 17.884H473.78L478.964 30.52L479.828 33.076L480.692 30.52L485.732 17.884H488.972L480.044 39.52C478.136 44.128 476.876 45.352 473.564 45.352ZM508.032 30.772C506.988 35.236 503.784 37.432 499.428 37.432C493.884 37.432 490.536 33.688 490.536 27.46C490.536 20.98 493.884 17.416 499.248 17.416C504.648 17.416 507.888 21.124 507.888 27.208V28H493.776C493.956 32.284 495.972 34.696 499.428 34.696C502.128 34.696 504.036 33.4 504.72 30.772H508.032ZM499.248 20.152C496.188 20.152 494.352 22.06 493.884 25.624H504.576C504.144 22.096 502.236 20.152 499.248 20.152ZM512.542 31.492V20.404H509.878V17.884H512.542V13.492H515.71V17.884H519.922V20.404H515.71V31.492C515.71 33.796 516.394 34.876 519.202 34.876H519.85V37.144C519.49 37.324 518.698 37.432 517.798 37.432C514.234 37.432 512.542 35.524 512.542 31.492ZM532.485 22.78C532.485 28.108 544.905 23.716 544.905 31.6C544.905 35.164 541.737 37.432 537.237 37.432C532.701 37.432 529.533 35.272 528.813 30.772H531.981C532.413 33.436 534.393 34.912 537.345 34.912C540.225 34.912 541.737 33.616 541.737 31.816C541.737 26.596 529.461 30.916 529.461 22.996C529.461 20.08 531.729 17.416 536.409 17.416C540.549 17.416 543.609 19.36 544.221 24.112H541.053C540.585 21.124 538.929 20.008 536.229 20.008C533.853 20.008 532.485 21.196 532.485 22.78ZM548.672 15.328V11.08H551.84V15.328H548.672ZM548.672 37V17.884H551.84V37H548.672ZM556.864 37V17.884H560.032V20.332C561.256 18.388 563.164 17.416 565.504 17.416C568.132 17.416 570.04 18.568 570.94 20.8C572.2 18.568 574.288 17.416 576.844 17.416C580.732 17.416 583.072 19.792 583.072 24.22V37H579.904V24.868C579.904 21.988 578.752 20.116 576.16 20.116C573.28 20.116 571.552 22.96 571.552 25.696V37H568.384V24.868C568.384 21.988 567.232 20.116 564.64 20.116C561.76 20.116 560.032 22.96 560.032 25.696V37H556.864ZM591.322 44.92H588.154V17.884H591.322V20.26C592.582 18.46 594.418 17.416 596.686 17.416C601.762 17.416 604.822 21.16 604.822 27.388C604.822 33.868 601.69 37.432 596.686 37.432C594.418 37.432 592.582 36.496 591.322 34.732V44.92ZM596.47 20.152C593.122 20.152 591.322 22.708 591.322 27.388C591.322 32.032 593.194 34.696 596.47 34.696C599.782 34.696 601.582 32.104 601.582 27.388C601.582 22.78 599.71 20.152 596.47 20.152ZM608.895 37V11.08H612.063V37H608.895ZM617.086 15.328V11.08H620.254V15.328H617.086ZM617.086 37V17.884H620.254V37H617.086ZM641.082 24.472H637.914C637.41 21.556 635.466 20.152 632.946 20.152C629.418 20.152 627.546 22.744 627.546 27.46C627.546 32.104 629.526 34.732 633.054 34.732C635.61 34.732 637.446 33.364 638.058 30.628H641.226C640.362 35.38 637.158 37.432 632.982 37.432C627.546 37.432 624.306 33.652 624.306 27.46C624.306 20.98 627.618 17.416 632.946 17.416C637.158 17.416 640.47 19.792 641.082 24.472ZM645.141 15.328V11.08H648.309V15.328H645.141ZM645.141 37V17.884H648.309V37H645.141ZM653.765 31.492V20.404H651.101V17.884H653.765V13.492H656.933V17.884H661.145V20.404H656.933V31.492C656.933 33.796 657.617 34.876 660.425 34.876H661.073V37.144C660.713 37.324 659.921 37.432 659.021 37.432C655.457 37.432 653.765 35.524 653.765 31.492ZM665.025 45.352C664.305 45.352 663.549 45.172 663.153 45.064V42.616H664.125C666.465 42.616 667.113 42.148 668.985 37.864L669.633 36.388L661.821 17.884H665.241L670.425 30.52L671.289 33.076L672.153 30.52L677.193 17.884H680.433L671.505 39.52C669.597 44.128 668.337 45.352 665.025 45.352ZM698.128 37.432C692.656 37.432 689.38 33.688 689.38 27.46C689.38 20.98 692.764 17.416 698.128 17.416C703.6 17.416 706.876 21.232 706.876 27.46C706.876 33.904 703.492 37.432 698.128 37.432ZM698.128 34.696C701.692 34.696 703.636 32.14 703.636 27.46C703.636 22.816 701.656 20.152 698.128 20.152C694.564 20.152 692.62 22.744 692.62 27.46C692.62 32.068 694.6 34.696 698.128 34.696ZM708.614 20.404V17.884H711.278V16.588C711.278 12.556 712.934 10.648 716.462 10.648C717.254 10.648 717.902 10.792 718.226 10.936V13.204H717.902C715.13 13.204 714.446 14.284 714.446 16.588V17.884H718.226V20.404H714.446V37H711.278V20.404H708.614ZM2.952 79.492V68.404H0.288V65.884H2.952V61.492H6.12V65.884H10.332V68.404H6.12V79.492C6.12 81.796 6.804 82.876 9.612 82.876H10.26V85.144C9.9 85.324 9.108 85.432 8.208 85.432C4.644 85.432 2.952 83.524 2.952 79.492ZM13.3481 85V59.08H16.5161V68.476C17.8121 66.46 19.9001 65.416 22.4201 65.416C26.4881 65.416 28.9001 67.792 28.9001 72.22V85H25.7321V72.868C25.7321 69.988 24.4361 68.116 21.5561 68.116C18.3881 68.116 16.5161 70.96 16.5161 73.696V85H13.3481ZM50.4737 78.772C49.4297 83.236 46.2257 85.432 41.8697 85.432C36.3257 85.432 32.9777 81.688 32.9777 75.46C32.9777 68.98 36.3257 65.416 41.6897 65.416C47.0897 65.416 50.3297 69.124 50.3297 75.208V76H36.2177C36.3977 80.284 38.4137 82.696 41.8697 82.696C44.5697 82.696 46.4777 81.4 47.1617 78.772H50.4737ZM41.6897 68.152C38.6297 68.152 36.7937 70.06 36.3257 73.624H47.0177C46.5857 70.096 44.6777 68.152 41.6897 68.152ZM68.9223 85.432C63.8463 85.432 60.7863 81.688 60.7863 75.46C60.7863 68.98 63.9183 65.416 68.9223 65.416C71.1903 65.416 73.0263 66.352 74.2863 68.116V59.08H77.4543V85H74.2863V82.588C73.0263 84.388 71.1903 85.432 68.9223 85.432ZM69.1383 82.696C72.4863 82.696 74.2863 80.14 74.2863 75.46C74.2863 70.816 72.4143 68.152 69.1383 68.152C65.8263 68.152 64.0263 70.744 64.0263 75.46C64.0263 80.068 65.8983 82.696 69.1383 82.696ZM99.0245 78.772C97.9805 83.236 94.7765 85.432 90.4205 85.432C84.8765 85.432 81.5285 81.688 81.5285 75.46C81.5285 68.98 84.8765 65.416 90.2405 65.416C95.6405 65.416 98.8805 69.124 98.8805 75.208V76H84.7685C84.9485 80.284 86.9645 82.696 90.4205 82.696C93.1205 82.696 95.0285 81.4 95.7125 78.772H99.0245ZM90.2405 68.152C87.1805 68.152 85.3445 70.06 84.8765 73.624H95.5685C95.1365 70.096 93.2285 68.152 90.2405 68.152ZM105.442 70.78C105.442 76.108 117.862 71.716 117.862 79.6C117.862 83.164 114.694 85.432 110.194 85.432C105.658 85.432 102.49 83.272 101.77 78.772H104.938C105.37 81.436 107.35 82.912 110.302 82.912C113.182 82.912 114.694 81.616 114.694 79.816C114.694 74.596 102.418 78.916 102.418 70.996C102.418 68.08 104.686 65.416 109.366 65.416C113.506 65.416 116.566 67.36 117.178 72.112H114.01C113.542 69.124 111.886 68.008 109.186 68.008C106.81 68.008 105.442 69.196 105.442 70.78ZM138.153 78.772C137.109 83.236 133.905 85.432 129.549 85.432C124.005 85.432 120.657 81.688 120.657 75.46C120.657 68.98 124.005 65.416 129.369 65.416C134.769 65.416 138.009 69.124 138.009 75.208V76H123.897C124.077 80.284 126.093 82.696 129.549 82.696C132.249 82.696 134.157 81.4 134.841 78.772H138.153ZM129.369 68.152C126.309 68.152 124.473 70.06 124.005 73.624H134.697C134.265 70.096 132.357 68.152 129.369 68.152ZM142.231 85V65.884H145.399V68.836C146.695 66.496 148.747 65.416 151.051 65.416C151.807 65.416 152.491 65.596 152.851 65.884V68.728C152.311 68.548 151.627 68.476 150.871 68.476C147.055 68.476 145.399 70.852 145.399 74.308V85H142.231ZM156.093 79.492V68.404H153.429V65.884H156.093V61.492H159.261V65.884H163.473V68.404H159.261V79.492C159.261 81.796 159.945 82.876 162.753 82.876H163.401V85.144C163.041 85.324 162.249 85.432 161.349 85.432C157.785 85.432 156.093 83.524 156.093 79.492ZM176.612 72.112H173.444C174.056 67.9 176.828 65.416 181.508 65.416C186.62 65.416 189.104 68.404 189.104 72.868V80.392C189.104 82.588 189.284 83.956 189.788 85H186.44C186.08 84.244 185.972 83.128 185.936 81.976C184.316 84.388 181.724 85.432 179.42 85.432C175.46 85.432 172.796 83.596 172.796 79.96C172.796 77.332 174.236 75.424 177.044 74.488C179.636 73.624 182.264 73.408 185.936 73.372V72.94C185.936 69.844 184.496 68.152 181.22 68.152C178.484 68.152 177.008 69.664 176.612 72.112ZM176.036 79.888C176.036 81.652 177.512 82.696 179.744 82.696C183.272 82.696 185.936 79.924 185.936 76.648V75.748C177.8 75.82 176.036 77.548 176.036 79.888ZM196.637 70.78C196.637 76.108 209.057 71.716 209.057 79.6C209.057 83.164 205.889 85.432 201.389 85.432C196.853 85.432 193.685 83.272 192.965 78.772H196.133C196.565 81.436 198.545 82.912 201.497 82.912C204.377 82.912 205.889 81.616 205.889 79.816C205.889 74.596 193.613 78.916 193.613 70.996C193.613 68.08 195.881 65.416 200.561 65.416C204.701 65.416 207.761 67.36 208.373 72.112H205.205C204.737 69.124 203.081 68.008 200.381 68.008C198.005 68.008 196.637 69.196 196.637 70.78ZM220.032 63.328V59.08H223.2V63.328H220.032ZM220.032 85V65.884H223.2V85H220.032ZM228.223 85V65.884H231.391V68.476C232.687 66.46 234.775 65.416 237.295 65.416C241.363 65.416 243.775 67.792 243.775 72.22V85H240.607V72.868C240.607 69.988 239.311 68.116 236.431 68.116C233.263 68.116 231.391 70.96 231.391 73.696V85H228.223ZM251.165 70.78C251.165 76.108 263.585 71.716 263.585 79.6C263.585 83.164 260.417 85.432 255.917 85.432C251.381 85.432 248.213 83.272 247.493 78.772H250.661C251.093 81.436 253.073 82.912 256.025 82.912C258.905 82.912 260.417 81.616 260.417 79.816C260.417 74.596 248.141 78.916 248.141 70.996C248.141 68.08 250.409 65.416 255.089 65.416C259.229 65.416 262.289 67.36 262.901 72.112H259.733C259.265 69.124 257.609 68.008 254.909 68.008C252.533 68.008 251.165 69.196 251.165 70.78ZM270.556 92.92H267.388V65.884H270.556V68.26C271.816 66.46 273.652 65.416 275.92 65.416C280.996 65.416 284.056 69.16 284.056 75.388C284.056 81.868 280.924 85.432 275.92 85.432C273.652 85.432 271.816 84.496 270.556 82.732V92.92ZM275.704 68.152C272.356 68.152 270.556 70.708 270.556 75.388C270.556 80.032 272.428 82.696 275.704 82.696C279.016 82.696 280.816 80.104 280.816 75.388C280.816 70.78 278.944 68.152 275.704 68.152ZM288.129 63.328V59.08H291.297V63.328H288.129ZM288.129 85V65.884H291.297V85H288.129ZM296.321 85V65.884H299.489V68.836C300.785 66.496 302.837 65.416 305.141 65.416C305.897 65.416 306.581 65.596 306.941 65.884V68.728C306.401 68.548 305.717 68.476 304.961 68.476C301.145 68.476 299.489 70.852 299.489 74.308V85H296.321ZM312.315 72.112H309.147C309.759 67.9 312.531 65.416 317.211 65.416C322.323 65.416 324.807 68.404 324.807 72.868V80.392C324.807 82.588 324.987 83.956 325.491 85H322.143C321.783 84.244 321.675 83.128 321.639 81.976C320.019 84.388 317.427 85.432 315.123 85.432C311.163 85.432 308.499 83.596 308.499 79.96C308.499 77.332 309.939 75.424 312.747 74.488C315.339 73.624 317.967 73.408 321.639 73.372V72.94C321.639 69.844 320.199 68.152 316.923 68.152C314.187 68.152 312.711 69.664 312.315 72.112ZM311.739 79.888C311.739 81.652 313.215 82.696 315.447 82.696C318.975 82.696 321.639 79.924 321.639 76.648V75.748C313.503 75.82 311.739 77.548 311.739 79.888ZM330.432 79.492V68.404H327.768V65.884H330.432V61.492H333.6V65.884H337.812V68.404H333.6V79.492C333.6 81.796 334.284 82.876 337.092 82.876H337.74V85.144C337.38 85.324 336.588 85.432 335.688 85.432C332.124 85.432 330.432 83.524 330.432 79.492ZM340.829 63.328V59.08H343.997V63.328H340.829ZM340.829 85V65.884H343.997V85H340.829ZM356.796 85.432C351.324 85.432 348.048 81.688 348.048 75.46C348.048 68.98 351.432 65.416 356.796 65.416C362.268 65.416 365.544 69.232 365.544 75.46C365.544 81.904 362.16 85.432 356.796 85.432ZM356.796 82.696C360.36 82.696 362.304 80.14 362.304 75.46C362.304 70.816 360.324 68.152 356.796 68.152C353.232 68.152 351.288 70.744 351.288 75.46C351.288 80.068 353.268 82.696 356.796 82.696ZM369.622 85V65.884H372.79V68.476C374.086 66.46 376.174 65.416 378.694 65.416C382.762 65.416 385.174 67.792 385.174 72.22V85H382.006V72.868C382.006 69.988 380.71 68.116 377.83 68.116C374.662 68.116 372.79 70.96 372.79 73.696V85H369.622ZM389.863 85V81.112H393.751V83.2C393.751 86.548 393.211 88.6 391.951 90.94H390.151C390.979 88.78 391.447 87.232 391.447 85H389.863Z" fill="#CBCBCB"/>
<path d="M253.745 117.576H250.289C249.389 114.588 246.833 112.932 243.701 112.932C238.913 112.932 236.069 116.676 236.069 122.796C236.069 128.916 238.877 132.588 243.701 132.588C246.725 132.588 249.173 131.04 250.217 128.088H253.709C252.341 132.732 248.345 135.432 243.665 135.432C236.825 135.432 232.685 130.644 232.685 122.796C232.685 114.984 236.897 110.088 243.809 110.088C248.525 110.088 252.557 112.68 253.745 117.576ZM265.577 135.432C260.105 135.432 256.829 131.688 256.829 125.46C256.829 118.98 260.213 115.416 265.577 115.416C271.049 115.416 274.325 119.232 274.325 125.46C274.325 131.904 270.941 135.432 265.577 135.432ZM265.577 132.696C269.141 132.696 271.085 130.14 271.085 125.46C271.085 120.816 269.105 118.152 265.577 118.152C262.013 118.152 260.069 120.744 260.069 125.46C260.069 130.068 262.049 132.696 265.577 132.696ZM278.403 135V115.884H281.571V118.836C282.867 116.496 284.919 115.416 287.223 115.416C287.979 115.416 288.663 115.596 289.023 115.884V118.728C288.483 118.548 287.799 118.476 287.043 118.476C283.227 118.476 281.571 120.852 281.571 124.308V135H278.403ZM291.833 113.328V109.08H295.001V113.328H291.833ZM291.833 135V115.884H295.001V135H291.833ZM300.024 135V115.884H303.192V118.332C304.416 116.388 306.324 115.416 308.664 115.416C311.292 115.416 313.2 116.568 314.1 118.8C315.36 116.568 317.448 115.416 320.004 115.416C323.892 115.416 326.232 117.792 326.232 122.22V135H323.064V122.868C323.064 119.988 321.912 118.116 319.32 118.116C316.44 118.116 314.712 120.96 314.712 123.696V135H311.544V122.868C311.544 119.988 310.392 118.116 307.8 118.116C304.92 118.116 303.192 120.96 303.192 123.696V135H300.024ZM334.194 122.112H331.026C331.638 117.9 334.41 115.416 339.09 115.416C344.202 115.416 346.686 118.404 346.686 122.868V130.392C346.686 132.588 346.866 133.956 347.37 135H344.022C343.662 134.244 343.554 133.128 343.518 131.976C341.898 134.388 339.306 135.432 337.002 135.432C333.042 135.432 330.378 133.596 330.378 129.96C330.378 127.332 331.818 125.424 334.626 124.488C337.218 123.624 339.846 123.408 343.518 123.372V122.94C343.518 119.844 342.078 118.152 338.802 118.152C336.066 118.152 334.59 119.664 334.194 122.112ZM333.618 129.888C333.618 131.652 335.094 132.696 337.326 132.696C340.854 132.696 343.518 129.924 343.518 126.648V125.748C335.382 125.82 333.618 127.548 333.618 129.888ZM359.518 129.492V118.404H356.854V115.884H359.518V111.492H362.686V115.884H366.898V118.404H362.686V129.492C362.686 131.796 363.37 132.876 366.178 132.876H366.826V135.144C366.466 135.324 365.674 135.432 364.774 135.432C361.21 135.432 359.518 133.524 359.518 129.492ZM372.831 122.112H369.663C370.275 117.9 373.047 115.416 377.727 115.416C382.839 115.416 385.323 118.404 385.323 122.868V130.392C385.323 132.588 385.503 133.956 386.007 135H382.659C382.299 134.244 382.191 133.128 382.155 131.976C380.535 134.388 377.943 135.432 375.639 135.432C371.679 135.432 369.015 133.596 369.015 129.96C369.015 127.332 370.455 125.424 373.263 124.488C375.855 123.624 378.483 123.408 382.155 123.372V122.94C382.155 119.844 380.715 118.152 377.439 118.152C374.703 118.152 373.227 119.664 372.831 122.112ZM372.255 129.888C372.255 131.652 373.731 132.696 375.963 132.696C379.491 132.696 382.155 129.924 382.155 126.648V125.748C374.019 125.82 372.255 127.548 372.255 129.888ZM390.516 135V109.08H393.684V124.092L401.928 115.884H405.816L397.104 124.416L406.32 135H402.288L393.684 125.244V135H390.516ZM424.302 128.772C423.258 133.236 420.054 135.432 415.698 135.432C410.154 135.432 406.806 131.688 406.806 125.46C406.806 118.98 410.154 115.416 415.518 115.416C420.918 115.416 424.158 119.124 424.158 125.208V126H410.046C410.226 130.284 412.242 132.696 415.698 132.696C418.398 132.696 420.306 131.4 420.99 128.772H424.302ZM415.518 118.152C412.458 118.152 410.622 120.06 410.154 123.624H420.846C420.414 120.096 418.506 118.152 415.518 118.152ZM430.719 120.78C430.719 126.108 443.139 121.716 443.139 129.6C443.139 133.164 439.971 135.432 435.471 135.432C430.935 135.432 427.767 133.272 427.047 128.772H430.215C430.647 131.436 432.627 132.912 435.579 132.912C438.459 132.912 439.971 131.616 439.971 129.816C439.971 124.596 427.695 128.916 427.695 120.996C427.695 118.08 429.963 115.416 434.643 115.416C438.783 115.416 441.843 117.36 442.455 122.112H439.287C438.819 119.124 437.163 118.008 434.463 118.008C432.087 118.008 430.719 119.196 430.719 120.78ZM470.674 135L466.534 120.708L466.102 118.548L465.67 120.708L461.566 135H457.642L451.954 115.884H455.374L459.298 130.716L459.766 132.66L460.234 130.716L464.59 115.884H468.01L472.366 130.716L472.798 132.588L473.194 130.716L477.118 115.884H480.394L474.67 135H470.674ZM483.258 135V109.08H486.426V118.476C487.722 116.46 489.81 115.416 492.33 115.416C496.398 115.416 498.81 117.792 498.81 122.22V135H495.642V122.868C495.642 119.988 494.346 118.116 491.466 118.116C488.298 118.116 486.426 120.96 486.426 123.696V135H483.258ZM506.776 122.112H503.608C504.22 117.9 506.992 115.416 511.672 115.416C516.784 115.416 519.268 118.404 519.268 122.868V130.392C519.268 132.588 519.448 133.956 519.952 135H516.604C516.244 134.244 516.136 133.128 516.1 131.976C514.48 134.388 511.888 135.432 509.584 135.432C505.624 135.432 502.96 133.596 502.96 129.96C502.96 127.332 504.4 125.424 507.208 124.488C509.8 123.624 512.428 123.408 516.1 123.372V122.94C516.1 119.844 514.66 118.152 511.384 118.152C508.648 118.152 507.172 119.664 506.776 122.112ZM506.2 129.888C506.2 131.652 507.676 132.696 509.908 132.696C513.436 132.696 516.1 129.924 516.1 126.648V125.748C507.964 125.82 506.2 127.548 506.2 129.888ZM524.893 129.492V118.404H522.229V115.884H524.893V111.492H528.061V115.884H532.273V118.404H528.061V129.492C528.061 131.796 528.745 132.876 531.553 132.876H532.201V135.144C531.841 135.324 531.049 135.432 530.149 135.432C526.585 135.432 524.893 133.524 524.893 129.492ZM542.497 113.328V109.08H545.665V113.328H542.497ZM542.497 135V115.884H545.665V135H542.497ZM553.028 120.78C553.028 126.108 565.448 121.716 565.448 129.6C565.448 133.164 562.28 135.432 557.78 135.432C553.244 135.432 550.076 133.272 549.356 128.772H552.524C552.956 131.436 554.936 132.912 557.888 132.912C560.768 132.912 562.28 131.616 562.28 129.816C562.28 124.596 550.004 128.916 550.004 120.996C550.004 118.08 552.272 115.416 556.952 115.416C561.092 115.416 564.152 117.36 564.764 122.112H561.596C561.128 119.124 559.472 118.008 556.772 118.008C554.396 118.008 553.028 119.196 553.028 120.78ZM574.082 118.404V115.884H576.746V114.588C576.746 110.556 578.402 108.648 581.93 108.648C582.722 108.648 583.37 108.792 583.694 108.936V111.204H583.37C580.598 111.204 579.914 112.284 579.914 114.588V115.884H583.694V118.404H579.914V135H576.746V118.404H574.082ZM589.147 122.112H585.979C586.591 117.9 589.363 115.416 594.043 115.416C599.155 115.416 601.639 118.404 601.639 122.868V130.392C601.639 132.588 601.819 133.956 602.323 135H598.975C598.615 134.244 598.507 133.128 598.471 131.976C596.851 134.388 594.259 135.432 591.955 135.432C587.995 135.432 585.331 133.596 585.331 129.96C585.331 127.332 586.771 125.424 589.579 124.488C592.171 123.624 594.799 123.408 598.471 123.372V122.94C598.471 119.844 597.031 118.152 593.755 118.152C591.019 118.152 589.543 119.664 589.147 122.112ZM588.571 129.888C588.571 131.652 590.047 132.696 592.279 132.696C595.807 132.696 598.471 129.924 598.471 126.648V125.748C590.335 125.82 588.571 127.548 588.571 129.888ZM606.833 135V115.884H610.001V118.332C611.225 116.388 613.133 115.416 615.473 115.416C618.101 115.416 620.009 116.568 620.909 118.8C622.169 116.568 624.257 115.416 626.812 115.416C630.701 115.416 633.041 117.792 633.041 122.22V135H629.873V122.868C629.873 119.988 628.721 118.116 626.129 118.116C623.249 118.116 621.521 120.96 621.521 123.696V135H618.353V122.868C618.353 119.988 617.201 118.116 614.609 118.116C611.729 118.116 610.001 120.96 610.001 123.696V135H606.833ZM638.086 113.328V109.08H641.254V113.328H638.086ZM638.086 135V115.884H641.254V135H638.086ZM646.278 135V109.08H649.446V135H646.278ZM654.469 113.328V109.08H657.637V113.328H654.469ZM654.469 135V115.884H657.637V135H654.469ZM665.577 122.112H662.409C663.021 117.9 665.793 115.416 670.473 115.416C675.585 115.416 678.069 118.404 678.069 122.868V130.392C678.069 132.588 678.249 133.956 678.753 135H675.405C675.045 134.244 674.937 133.128 674.901 131.976C673.281 134.388 670.689 135.432 668.385 135.432C664.425 135.432 661.761 133.596 661.761 129.96C661.761 127.332 663.201 125.424 666.009 124.488C668.601 123.624 671.229 123.408 674.901 123.372V122.94C674.901 119.844 673.461 118.152 670.185 118.152C667.449 118.152 665.973 119.664 665.577 122.112ZM665.001 129.888C665.001 131.652 666.477 132.696 668.709 132.696C672.237 132.696 674.901 129.924 674.901 126.648V125.748C666.765 125.82 665.001 127.548 665.001 129.888ZM683.262 135V115.884H686.43V118.836C687.726 116.496 689.778 115.416 692.082 115.416C692.838 115.416 693.522 115.596 693.882 115.884V118.728C693.342 118.548 692.658 118.476 691.902 118.476C688.086 118.476 686.43 120.852 686.43 124.308V135H683.262ZM704.331 129.492V118.404H701.667V115.884H704.331V111.492H707.499V115.884H711.711V118.404H707.499V129.492C707.499 131.796 708.183 132.876 710.991 132.876H711.639V135.144C711.279 135.324 710.487 135.432 709.587 135.432C706.023 135.432 704.331 133.524 704.331 129.492ZM722.503 135.432C717.031 135.432 713.755 131.688 713.755 125.46C713.755 118.98 717.139 115.416 722.503 115.416C727.975 115.416 731.251 119.232 731.251 125.46C731.251 131.904 727.867 135.432 722.503 135.432ZM722.503 132.696C726.067 132.696 728.011 130.14 728.011 125.46C728.011 120.816 726.031 118.152 722.503 118.152C718.939 118.152 716.995 120.744 716.995 125.46C716.995 130.068 718.975 132.696 722.503 132.696ZM744.876 120.78C744.876 126.108 757.296 121.716 757.296 129.6C757.296 133.164 754.128 135.432 749.628 135.432C745.092 135.432 741.924 133.272 741.204 128.772H744.372C744.804 131.436 746.784 132.912 749.736 132.912C752.616 132.912 754.128 131.616 754.128 129.816C754.128 124.596 741.852 128.916 741.852 120.996C741.852 118.08 744.12 115.416 748.8 115.416C752.94 115.416 756 117.36 756.612 122.112H753.444C752.976 119.124 751.32 118.008 748.62 118.008C746.244 118.008 744.876 119.196 744.876 120.78ZM768.839 135.432C763.367 135.432 760.091 131.688 760.091 125.46C760.091 118.98 763.475 115.416 768.839 115.416C774.311 115.416 777.587 119.232 777.587 125.46C777.587 131.904 774.203 135.432 768.839 135.432ZM768.839 132.696C772.403 132.696 774.347 130.14 774.347 125.46C774.347 120.816 772.367 118.152 768.839 118.152C765.275 118.152 763.331 120.744 763.331 125.46C763.331 130.068 765.311 132.696 768.839 132.696ZM781.665 135V115.884H784.833V118.332C786.057 116.388 787.965 115.416 790.305 115.416C792.933 115.416 794.841 116.568 795.741 118.8C797.001 116.568 799.089 115.416 801.645 115.416C805.533 115.416 807.873 117.792 807.873 122.22V135H804.705V122.868C804.705 119.988 803.553 118.116 800.961 118.116C798.081 118.116 796.353 120.96 796.353 123.696V135H793.185V122.868C793.185 119.988 792.033 118.116 789.441 118.116C786.561 118.116 784.833 120.96 784.833 123.696V135H781.665ZM829.442 128.772C828.398 133.236 825.194 135.432 820.838 135.432C815.294 135.432 811.946 131.688 811.946 125.46C811.946 118.98 815.294 115.416 820.658 115.416C826.058 115.416 829.298 119.124 829.298 125.208V126H815.186C815.366 130.284 817.382 132.696 820.838 132.696C823.538 132.696 825.446 131.4 826.13 128.772H829.442ZM820.658 118.152C817.598 118.152 815.762 120.06 815.294 123.624H825.986C825.554 120.096 823.646 118.152 820.658 118.152ZM398.6 170.112H395.432C396.044 165.9 398.816 163.416 403.496 163.416C408.608 163.416 411.092 166.404 411.092 170.868V178.392C411.092 180.588 411.272 181.956 411.776 183H408.428C408.068 182.244 407.96 181.128 407.924 179.976C406.304 182.388 403.712 183.432 401.408 183.432C397.448 183.432 394.784 181.596 394.784 177.96C394.784 175.332 396.224 173.424 399.032 172.488C401.624 171.624 404.252 171.408 407.924 171.372V170.94C407.924 167.844 406.484 166.152 403.208 166.152C400.472 166.152 398.996 167.664 398.6 170.112ZM398.024 177.888C398.024 179.652 399.5 180.696 401.732 180.696C405.26 180.696 407.924 177.924 407.924 174.648V173.748C399.788 173.82 398.024 175.548 398.024 177.888ZM416.286 183V163.884H419.454V166.476C420.75 164.46 422.838 163.416 425.358 163.416C429.426 163.416 431.838 165.792 431.838 170.22V183H428.67V170.868C428.67 167.988 427.374 166.116 424.494 166.116C421.326 166.116 419.454 168.96 419.454 171.696V183H416.286ZM444.051 183.432C438.975 183.432 435.915 179.688 435.915 173.46C435.915 166.98 439.047 163.416 444.051 163.416C446.319 163.416 448.155 164.352 449.415 166.116V157.08H452.583V183H449.415V180.588C448.155 182.388 446.319 183.432 444.051 183.432ZM444.267 180.696C447.615 180.696 449.415 178.14 449.415 173.46C449.415 168.816 447.543 166.152 444.267 166.152C440.955 166.152 439.155 168.744 439.155 173.46C439.155 178.068 441.027 180.696 444.267 180.696ZM464.836 183V163.884H468.004V166.332C469.228 164.388 471.136 163.416 473.476 163.416C476.104 163.416 478.012 164.568 478.912 166.8C480.172 164.568 482.26 163.416 484.816 163.416C488.704 163.416 491.044 165.792 491.044 170.22V183H487.876V170.868C487.876 167.988 486.724 166.116 484.132 166.116C481.252 166.116 479.524 168.96 479.524 171.696V183H476.356V170.868C476.356 167.988 475.204 166.116 472.612 166.116C469.732 166.116 468.004 168.96 468.004 171.696V183H464.836ZM499.006 170.112H495.838C496.45 165.9 499.222 163.416 503.902 163.416C509.014 163.416 511.498 166.404 511.498 170.868V178.392C511.498 180.588 511.678 181.956 512.182 183H508.834C508.474 182.244 508.366 181.128 508.33 179.976C506.71 182.388 504.118 183.432 501.814 183.432C497.854 183.432 495.19 181.596 495.19 177.96C495.19 175.332 496.63 173.424 499.438 172.488C502.03 171.624 504.658 171.408 508.33 171.372V170.94C508.33 167.844 506.89 166.152 503.614 166.152C500.878 166.152 499.402 167.664 499.006 170.112ZM498.43 177.888C498.43 179.652 499.906 180.696 502.138 180.696C505.666 180.696 508.33 177.924 508.33 174.648V173.748C500.194 173.82 498.43 175.548 498.43 177.888ZM516.692 183V157.08H519.86V172.092L528.104 163.884H531.992L523.28 172.416L532.496 183H528.464L519.86 173.244V183H516.692ZM550.478 176.772C549.434 181.236 546.23 183.432 541.874 183.432C536.33 183.432 532.982 179.688 532.982 173.46C532.982 166.98 536.33 163.416 541.694 163.416C547.094 163.416 550.334 167.124 550.334 173.208V174H536.222C536.402 178.284 538.418 180.696 541.874 180.696C544.574 180.696 546.482 179.4 547.166 176.772H550.478ZM541.694 166.152C538.634 166.152 536.798 168.06 536.33 171.624H547.022C546.59 168.096 544.682 166.152 541.694 166.152ZM556.895 168.78C556.895 174.108 569.315 169.716 569.315 177.6C569.315 181.164 566.147 183.432 561.647 183.432C557.111 183.432 553.943 181.272 553.223 176.772H556.391C556.823 179.436 558.803 180.912 561.755 180.912C564.635 180.912 566.147 179.616 566.147 177.816C566.147 172.596 553.871 176.916 553.871 168.996C553.871 166.08 556.139 163.416 560.819 163.416C564.959 163.416 568.019 165.36 568.631 170.112H565.463C564.995 167.124 563.339 166.008 560.639 166.008C558.263 166.008 556.895 167.196 556.895 168.78ZM580.29 161.328V157.08H583.458V161.328H580.29ZM580.29 183V163.884H583.458V183H580.29ZM588.913 177.492V166.404H586.249V163.884H588.913V159.492H592.081V163.884H596.293V166.404H592.081V177.492C592.081 179.796 592.765 180.876 595.573 180.876H596.221V183.144C595.861 183.324 595.069 183.432 594.169 183.432C590.605 183.432 588.913 181.524 588.913 177.492ZM608.856 168.78C608.856 174.108 621.276 169.716 621.276 177.6C621.276 181.164 618.108 183.432 613.608 183.432C609.072 183.432 605.904 181.272 605.184 176.772H608.352C608.784 179.436 610.764 180.912 613.716 180.912C616.596 180.912 618.108 179.616 618.108 177.816C618.108 172.596 605.832 176.916 605.832 168.996C605.832 166.08 608.1 163.416 612.78 163.416C616.92 163.416 619.98 165.36 620.592 170.112H617.424C616.956 167.124 615.3 166.008 612.6 166.008C610.224 166.008 608.856 167.196 608.856 168.78ZM641.567 176.772C640.523 181.236 637.319 183.432 632.963 183.432C627.419 183.432 624.071 179.688 624.071 173.46C624.071 166.98 627.419 163.416 632.783 163.416C638.183 163.416 641.423 167.124 641.423 173.208V174H627.311C627.491 178.284 629.507 180.696 632.963 180.696C635.663 180.696 637.571 179.4 638.255 176.772H641.567ZM632.783 166.152C629.723 166.152 627.887 168.06 627.419 171.624H638.111C637.679 168.096 635.771 166.152 632.783 166.152ZM645.645 183V163.884H648.813V166.476C650.109 164.46 652.197 163.416 654.717 163.416C658.785 163.416 661.197 165.792 661.197 170.22V183H658.029V170.868C658.029 167.988 656.733 166.116 653.853 166.116C650.685 166.116 648.813 168.96 648.813 171.696V183H645.645ZM668.587 168.78C668.587 174.108 681.007 169.716 681.007 177.6C681.007 181.164 677.839 183.432 673.339 183.432C668.803 183.432 665.635 181.272 664.915 176.772H668.083C668.515 179.436 670.495 180.912 673.447 180.912C676.327 180.912 677.839 179.616 677.839 177.816C677.839 172.596 665.563 176.916 665.563 168.996C665.563 166.08 667.831 163.416 672.511 163.416C676.651 163.416 679.711 165.36 680.323 170.112H677.155C676.687 167.124 675.031 166.008 672.331 166.008C669.955 166.008 668.587 167.196 668.587 168.78ZM684.774 161.328V157.08H687.942V161.328H684.774ZM684.774 183V163.884H687.942V183H684.774ZM696.133 183H692.965V157.08H696.133V166.26C697.393 164.46 699.229 163.416 701.497 163.416C706.573 163.416 709.633 167.16 709.633 173.388C709.633 179.868 706.501 183.432 701.497 183.432C699.229 183.432 697.393 182.496 696.133 180.732V183ZM701.281 166.152C697.933 166.152 696.133 168.708 696.133 173.388C696.133 178.032 698.005 180.696 701.281 180.696C704.593 180.696 706.393 178.104 706.393 173.388C706.393 168.78 704.521 166.152 701.281 166.152ZM713.708 183V157.08H716.876V183H713.708ZM738.423 176.772C737.379 181.236 734.175 183.432 729.819 183.432C724.275 183.432 720.927 179.688 720.927 173.46C720.927 166.98 724.275 163.416 729.639 163.416C735.039 163.416 738.279 167.124 738.279 173.208V174H724.167C724.347 178.284 726.363 180.696 729.819 180.696C732.519 180.696 734.427 179.4 735.111 176.772H738.423ZM729.639 166.152C726.579 166.152 724.743 168.06 724.275 171.624H734.967C734.535 168.096 732.627 166.152 729.639 166.152ZM750.14 177.492V166.404H747.476V163.884H750.14V159.492H753.308V163.884H757.52V166.404H753.308V177.492C753.308 179.796 753.992 180.876 756.8 180.876H757.448V183.144C757.088 183.324 756.296 183.432 755.396 183.432C751.832 183.432 750.14 181.524 750.14 177.492ZM768.312 183.432C762.84 183.432 759.564 179.688 759.564 173.46C759.564 166.98 762.948 163.416 768.312 163.416C773.784 163.416 777.06 167.232 777.06 173.46C777.06 179.904 773.676 183.432 768.312 183.432ZM768.312 180.696C771.876 180.696 773.82 178.14 773.82 173.46C773.82 168.816 771.84 166.152 768.312 166.152C764.748 166.152 762.804 168.744 762.804 173.46C762.804 178.068 764.784 180.696 768.312 180.696ZM791.26 170.112H788.092C788.704 165.9 791.476 163.416 796.156 163.416C801.268 163.416 803.752 166.404 803.752 170.868V178.392C803.752 180.588 803.932 181.956 804.436 183H801.088C800.728 182.244 800.62 181.128 800.584 179.976C798.964 182.388 796.372 183.432 794.068 183.432C790.108 183.432 787.444 181.596 787.444 177.96C787.444 175.332 788.884 173.424 791.692 172.488C794.284 171.624 796.912 171.408 800.584 171.372V170.94C800.584 167.844 799.144 166.152 795.868 166.152C793.132 166.152 791.656 167.664 791.26 170.112ZM790.684 177.888C790.684 179.652 792.16 180.696 794.392 180.696C797.92 180.696 800.584 177.924 800.584 174.648V173.748C792.448 173.82 790.684 175.548 790.684 177.888ZM808.946 183V157.08H812.114V183H808.946ZM817.137 183V157.08H820.305V183H817.137ZM824.969 183V179.112H828.857V183H824.969Z" fill="#CBCBCB"/>
</svg>
